{
.appVersion = "3225";
.formatVersion = 3;
DisplayStrings = (
"HAMBURGEFONTSIV
hamburgefontsiv.

job ojuju"
);
axes = (
{
name = Weight;
tag = wght;
}
);
date = "2023-09-24 04:03:02 +0000";
familyName = Ojuju;
fontMaster = (
{
axesValues = (
22
);
guides = (
{
locked = 1;
pos = (243,466);
},
{
locked = 1;
pos = (243,258);
showMeasurement = 1;
},
{
locked = 1;
pos = (-522,656);
}
);
id = "60D037D9-62E9-4843-B070-F1594CB0B0D1";
metricValues = (
{
over = 16;
pos = 800;
},
{
over = 16;
pos = 700;
},
{
over = 16;
pos = 480;
},
{
over = -16;
},
{
over = -16;
pos = -200;
},
{
}
);
name = Extralight;
visible = 1;
},
{
axesValues = (
284
);
guides = (
{
angle = 180;
locked = 1;
pos = (409,329);
}
);
iconName = Bold;
id = m01;
metricValues = (
{
over = 16;
pos = 800;
},
{
over = 16;
pos = 700;
},
{
over = 16;
pos = 500;
},
{
over = -16;
},
{
over = -16;
pos = -200;
},
{
}
);
name = Bold;
visible = 1;
}
);
glyphs = (
{
color = 4;
glyphname = A;
lastChange = "2023-11-03 19:28:48 +0000";
layers = (
{
anchors = (
{
name = bottom;
pos = (319,0);
},
{
name = ogonek;
pos = (550,10);
},
{
name = top;
pos = (319,700);
}
);
layerId = m01;
shapes = (
{
closed = 1;
nodes = (
(115,0,l),
(115,54,o),
(116,82,o),
(120,102,cs),
(129,146,o),
(161,155,o),
(318,155,cs),
(475,155,o),
(507,146,o),
(516,102,cs),
(520,82,o),
(521,54,o),
(521,0,c),
(617,0,l),
(585,198,o),
(569,394,o),
(559,700,c),
(77,700,l),
(67,394,o),
(51,198,o),
(19,0,c)
);
},
{
closed = 1;
nodes = (
(232,289,o),
(185,293,o),
(159,304,cs),
(135,314,o),
(125,331,o),
(125,362,cs),
(125,385,o),
(135,402,o),
(155,413,cs),
(183,427,o),
(234,434,o),
(318,434,cs),
(402,434,o),
(453,427,o),
(481,413,cs),
(501,402,o),
(511,385,o),
(511,362,cs),
(511,331,o),
(501,314,o),
(477,304,cs),
(451,293,o),
(404,289,o),
(318,289,cs)
);
}
);
width = 637;
},
{
anchors = (
{
name = bottom;
pos = (291,0);
},
{
name = ogonek;
pos = (489,10);
},
{
name = top;
pos = (291,700);
}
);
layerId = "60D037D9-62E9-4843-B070-F1594CB0B0D1";
shapes = (
{
closed = 1;
nodes = (
(76,0,l),
(80,40,o),
(90,137,o),
(94,179,cs),
(97,207,o),
(108,212,o),
(289,212,cs),
(470,212,o),
(482,207,o),
(485,179,cs),
(489,137,o),
(498,40,o),
(502,0,c),
(528,0,l),
(497,232,o),
(474,468,o),
(459,700,c),
(119,700,l),
(104,468,o),
(81,232,o),
(50,0,c)
);
},
{
closed = 1;
nodes = (
(117,243,o),
(107,246,o),
(107,276,cs),
(107,331,o),
(116,413,o),
(120,466,cs),
(125,526,o),
(130,585,o),
(134,630,cs),
(137,661,o),
(147,663,o),
(289,663,cs),
(431,663,o),
(441,661,o),
(444,630,cs),
(449,588,o),
(455,524,o),
(460,466,cs),
(464,413,o),
(473,331,o),
(473,276,cs),
(473,246,o),
(463,243,o),
(290,243,cs)
);
}
);
width = 578;
}
);
unicode = 65;
},
{
color = 2;
glyphname = B;
lastChange = "2023-11-03 19:28:48 +0000";
layers = (
{
anchors = (
{
name = bottom;
pos = (300,0);
},
{
name = center;
pos = (300,350);
},
{
name = top;
pos = (300,700);
}
);
background = {
shapes = (
{
closed = 1;
nodes = (
(590,-8,o),
(698,121,o),
(698,354,cs),
(698,574,o),
(590,710,o),
(364,710,cs),
(138,710,o),
(30,574,o),
(30,351,cs),
(30,118,o),
(138,-8,o),
(364,-8,cs)
);
},
{
closed = 1;
nodes = (
(131,196,o),
(105,221,o),
(105,273,cs),
(105,325,o),
(126,350,o),
(364,350,cs),
(602,350,o),
(631,325,o),
(631,273,cs),
(631,221,o),
(602,196,o),
(364,196,cs)
);
}
);
};
layerId = m01;
shapes = (
{
closed = 1;
nodes = (
(159,0,o),
(270,0,o),
(378,0,cs),
(467,0,o),
(592,25,o),
(592,202,cs),
(592,348,o),
(455,368,o),
(455,368,cs),
(455,368,o),
(548,374,o),
(548,526,cs),
(548,568,o),
(529,697,o),
(378,699,cs),
(258,701,o),
(150,700,o),
(30,701,c),
(34,467,o),
(34,234,o),
(30,0,c)
);
},
{
closed = 1;
nodes = (
(210,192,o),
(164,196,o),
(135,207,cs),
(109,218,o),
(100,236,o),
(100,265,cs),
(100,288,o),
(110,305,o),
(132,316,cs),
(161,331,o),
(213,337,o),
(291,337,cs),
(369,337,o),
(418,332,o),
(447,318,cs),
(470,306,o),
(480,289,o),
(480,265,cs),
(480,238,o),
(474,221,o),
(452,210,cs),
(424,196,o),
(376,192,o),
(291,192,cs)
);
},
{
closed = 1;
nodes = (
(201,374,o),
(161,375,o),
(137,381,cs),
(115,387,o),
(108,396,o),
(108,407,cs),
(108,419,o),
(116,428,o),
(135,433,cs),
(159,439,o),
(202,442,o),
(268,442,cs),
(336,442,o),
(377,441,o),
(402,433,cs),
(421,428,o),
(430,420,o),
(430,407,cs),
(430,396,o),
(424,387,o),
(406,383,cs),
(382,375,o),
(341,374,o),
(268,374,cs)
);
}
);
width = 600;
},
{
anchors = (
{
name = bottom;
pos = (300,0);
},
{
name = center;
pos = (300,350);
},
{
name = top;
pos = (300,700);
}
);
layerId = "60D037D9-62E9-4843-B070-F1594CB0B0D1";
shapes = (
{
closed = 1;
nodes = (
(159,0,o),
(270,0,o),
(378,0,cs),
(467,0,o),
(592,25,o),
(592,202,cs),
(592,348,o),
(455,368,o),
(455,368,cs),
(455,368,o),
(548,374,o),
(548,526,cs),
(548,568,o),
(529,697,o),
(378,699,cs),
(258,701,o),
(150,700,o),
(30,701,c),
(34,467,o),
(34,234,o),
(30,0,c)
);
},
{
closed = 1;
nodes = (
(210,192,o),
(164,196,o),
(135,207,cs),
(109,218,o),
(100,236,o),
(100,265,cs),
(100,288,o),
(110,305,o),
(132,316,cs),
(161,331,o),
(213,337,o),
(291,337,cs),
(369,337,o),
(418,332,o),
(447,318,cs),
(470,306,o),
(480,289,o),
(480,265,cs),
(480,238,o),
(474,221,o),
(452,210,cs),
(424,196,o),
(376,192,o),
(291,192,cs)
);
},
{
closed = 1;
nodes = (
(201,374,o),
(161,375,o),
(137,381,cs),
(115,387,o),
(108,396,o),
(108,407,cs),
(108,419,o),
(116,428,o),
(135,433,cs),
(159,439,o),
(202,442,o),
(268,442,cs),
(336,442,o),
(377,441,o),
(402,433,cs),
(421,428,o),
(430,420,o),
(430,407,cs),
(430,396,o),
(424,387,o),
(406,383,cs),
(382,375,o),
(341,374,o),
(268,374,cs)
);
}
);
width = 600;
}
);
unicode = 66;
},
{
color = 1;
glyphname = C;
lastChange = "2023-11-03 19:28:48 +0000";
layers = (
{
anchors = (
{
name = bottom;
pos = (287,0);
},
{
name = top;
pos = (287,700);
}
);
layerId = m01;
shapes = (
{
closed = 1;
nodes = (
(484,-8,o),
(514,22,o),
(537,32,c),
(537,216,l),
(534,214,o),
(486,196,o),
(339,196,cs),
(136,196,o),
(111,222,o),
(111,276,cs),
(111,322,o),
(130,350,o),
(336,350,cs),
(472,350,o),
(533,334,o),
(537,330,c),
(537,680,l),
(518,688,o),
(480,710,o),
(395,710,cs),
(150,710,o),
(36,597,o),
(36,352,cs),
(36,106,o),
(150,-8,o),
(388,-8,cs)
);
}
);
width = 573;
},
{
anchors = (
{
name = bottom;
pos = (300,0);
},
{
name = top;
pos = (300,700);
}
);
layerId = "60D037D9-62E9-4843-B070-F1594CB0B0D1";
shapes = (
{
closed = 1;
nodes = (
(531,-8,o),
(578,22,o),
(601,32,c),
(601,216,l),
(598,214,o),
(537,196,o),
(353,196,cs),
(132,196,o),
(105,222,o),
(105,276,cs),
(105,322,o),
(125,350,o),
(350,350,cs),
(520,350,o),
(597,334,o),
(601,330,c),
(601,680,l),
(585,687,o),
(524,710,o),
(411,710,cs),
(150,710,o),
(30,598,o),
(30,352,cs),
(30,106,o),
(150,-8,o),
(402,-8,cs)
);
}
);
width = 600;
}
);
unicode = 67;
},
{
color = 2;
glyphname = D;
lastChange = "2023-11-03 19:28:48 +0000";
layers = (
{
anchors = (
{
name = bottom;
pos = (332,0);
},
{
name = center;
pos = (332,350);
},
{
name = top;
pos = (332,700);
}
);
background = {
shapes = (
{
closed = 1;
nodes = (
(622,-8,o),
(730,121,o),
(730,354,cs),
(730,574,o),
(622,710,o),
(396,710,cs),
(170,710,o),
(62,574,o),
(62,351,cs),
(62,118,o),
(170,-8,o),
(396,-8,cs)
);
},
{
closed = 1;
nodes = (
(163,196,o),
(137,221,o),
(137,273,cs),
(137,325,o),
(158,350,o),
(396,350,cs),
(634,350,o),
(663,325,o),
(663,273,cs),
(663,221,o),
(634,196,o),
(396,196,cs)
);
}
);
};
layerId = m01;
shapes = (
{
closed = 1;
nodes = (
(161,0,o),
(244,0,o),
(308,0,cs),
(434,0,o),
(495,15,o),
(527,38,cs),
(559,61,o),
(615,102,o),
(615,349,cs),
(615,598,o),
(571,629,o),
(531,657,cs),
(489,686,o),
(433,700,o),
(301,700,cs),
(238,700,o),
(157,700,o),
(52,700,c),
(62,469,o),
(62,231,o),
(52,0,c)
);
},
{
closed = 1;
nodes = (
(243,204,o),
(182,209,o),
(153,231,cs),
(129,249,o),
(126,281,o),
(126,318,cs),
(126,361,o),
(130,391,o),
(153,408,cs),
(183,430,o),
(252,434,o),
(336,434,cs),
(412,434,o),
(488,431,o),
(518,406,cs),
(540,388,o),
(544,352,o),
(544,321,cs),
(544,280,o),
(537,249,o),
(515,231,cs),
(487,208,o),
(425,204,o),
(339,204,cs)
);
}
);
width = 649;
},
{
anchors = (
{
name = bottom;
pos = (324,0);
},
{
name = center;
pos = (324,350);
},
{
name = top;
pos = (324,700);
}
);
layerId = "60D037D9-62E9-4843-B070-F1594CB0B0D1";
shapes = (
{
closed = 1;
nodes = (
(178,0,o),
(250,1,o),
(303,1,cs),
(392,1,o),
(419,7,o),
(449,21,cs),
(504,46,o),
(550,102,o),
(550,354,cs),
(550,597,o),
(507,633,o),
(469,660,cs),
(439,681,o),
(395,700,o),
(294,700,cs),
(242,700,o),
(173,700,o),
(80,700,c),
(84,468,o),
(84,232,o),
(80,0,c)
);
},
{
closed = 1;
nodes = (
(108,21,o),
(107,21,o),
(105,125,cs),
(104,158,o),
(104,257,o),
(104,350,cs),
(104,394,o),
(104,562,o),
(106,597,cs),
(109,657,o),
(109,657,o),
(276,657,cs),
(326,657,o),
(414,661,o),
(465,616,cs),
(526,563,o),
(530,412,o),
(530,358,cs),
(530,312,o),
(527,125,o),
(475,67,cs),
(434,21,o),
(358,21,o),
(282,21,cs)
);
}
);
width = 608;
}
);
unicode = 68;
},
{
color = 1;
glyphname = E;
lastChange = "2023-11-03 19:28:48 +0000";
layers = (
{
anchors = (
{
name = bottom;
pos = (350,0);
},
{
name = ogonek;
pos = (590,10);
},
{
name = top;
pos = (350,700);
},
{
name = topleft;
pos = (70,700);
}
);
layerId = "60D037D9-62E9-4843-B070-F1594CB0B0D1";
shapes = (
{
closed = 1;
nodes = (
(486,0,l),
(485,23,l),
(553,24,o),
(458,22,o),
(341,21,cs),
(112,18,o),
(105,19,o),
(103,71,cs),
(102,98,o),
(101,151,o),
(101,203,cs),
(101,248,o),
(102,288,o),
(103,308,cs),
(105,348,o),
(108,349,o),
(311,347,cs),
(243,348,o),
(392,347,o),
(484,346,c),
(484,381,l),
(427,380,o),
(609,382,o),
(311,379,cs),
(111,377,o),
(105,378,o),
(103,411,cs),
(102,428,o),
(101,469,o),
(101,508,cs),
(101,530,o),
(102,598,o),
(103,614,cs),
(105,653,o),
(131,658,o),
(335,658,cs),
(282,658,o),
(148,660,o),
(485,656,c),
(486,700,l),
(80,700,l),
(84,466,o),
(84,234,o),
(80,0,c)
);
}
);
width = 546;
},
{
anchors = (
{
name = bottom;
pos = (322,0);
},
{
name = ogonek;
pos = (562,10);
},
{
name = top;
pos = (322,700);
},
{
name = topleft;
pos = (42,700);
}
);
layerId = m01;
shapes = (
{
closed = 1;
nodes = (
(570,0,l),
(565,197,l),
(555,194,o),
(431,192,o),
(313,192,cs),
(232,192,o),
(191,195,o),
(163,202,cs),
(140,209,o),
(129,220,o),
(129,238,cs),
(129,255,o),
(139,265,o),
(161,272,cs),
(191,281,o),
(237,286,o),
(298,286,cs),
(349,286,o),
(542,283,o),
(558,282,c),
(558,361,l),
(536,360,o),
(326,357,o),
(270,357,cs),
(218,357,o),
(187,360,o),
(166,366,cs),
(146,372,o),
(137,382,o),
(137,398,cs),
(137,414,o),
(146,425,o),
(165,431,cs),
(188,439,o),
(227,442,o),
(290,442,cs),
(441,442,o),
(558,441,o),
(565,439,c),
(570,699,l),
(52,701,l),
(62,467,o),
(62,234,o),
(52,0,c)
);
}
);
width = 610;
}
);
unicode = 69;
},
{
color = 1;
glyphname = F;
lastChange = "2023-11-03 19:28:48 +0000";
layers = (
{
anchors = (
{
name = bottom;
pos = (286,0);
},
{
name = top;
pos = (286,700);
}
);
background = {
shapes = (
{
closed = 1;
nodes = (
(38,467,o),
(38,233,o),
(30,0,c),
(144,0,l),
(119,322,o),
(89,379,o),
(189,379,cs),
(312,379,o),
(316,264,o),
(390,0,c),
(555,0,l),
(547,233,o),
(547,467,o),
(555,700,c),
(441,700,l),
(465,324,o),
(470,300,o),
(423,300,cs),
(361,300,o),
(351,325,o),
(261,700,c),
(30,700,l)
);
}
);
};
layerId = m01;
shapes = (
{
closed = 1;
nodes = (
(136,0,l),
(130,83,o),
(126,175,o),
(126,207,cs),
(126,234,o),
(136,253,o),
(156,265,cs),
(178,278,o),
(189,279,o),
(291,279,cs),
(378,279,o),
(418,278,o),
(544,275,c),
(544,354,l),
(329,350,o),
(333,350,o),
(273,350,cs),
(191,350,o),
(167,352,o),
(144,359,cs),
(124,365,o),
(115,377,o),
(115,396,cs),
(115,413,o),
(124,425,o),
(143,431,cs),
(169,440,o),
(213,444,o),
(271,444,cs),
(302,444,o),
(410,443,o),
(548,441,c),
(548,699,l),
(30,701,l),
(34,467,o),
(34,234,o),
(30,0,c)
);
}
);
width = 572;
},
{
anchors = (
{
name = bottom;
pos = (300,0);
},
{
name = top;
pos = (300,700);
}
);
layerId = "60D037D9-62E9-4843-B070-F1594CB0B0D1";
shapes = (
{
closed = 1;
nodes = (
(126,0,l),
(118,124,o),
(116,196,o),
(116,214,cs),
(116,231,o),
(118,256,o),
(146,272,cs),
(172,287,o),
(206,286,o),
(291,286,cs),
(361,286,o),
(394,286,o),
(548,282,c),
(548,361,l),
(386,358,o),
(348,357,o),
(273,357,cs),
(198,357,o),
(162,358,o),
(137,366,cs),
(115,373,o),
(108,384,o),
(108,399,cs),
(108,413,o),
(115,424,o),
(136,431,cs),
(157,438,o),
(202,444,o),
(271,444,cs),
(299,444,o),
(397,443,o),
(548,441,c),
(548,699,l),
(30,701,l),
(34,467,o),
(34,234,o),
(30,0,c)
);
}
);
width = 600;
}
);
unicode = 70;
},
{
color = 1;
glyphname = G;
lastChange = "2023-11-03 19:28:48 +0000";
layers = (
{
layerId = m01;
shapes = (
{
closed = 1;
nodes = (
(447,-8,o),
(502,7,o),
(537,32,c),
(538,138,o),
(541,218,o),
(545,295,c),
(441,295,l),
(449,264,o),
(452,212,o),
(446,210,cs),
(416,201,o),
(380,196,o),
(339,196,cs),
(160,196,o),
(111,213,o),
(111,276,cs),
(111,333,o),
(163,350,o),
(336,350,cs),
(425,350,o),
(523,340,o),
(537,330,c),
(537,680,l),
(506,699,o),
(451,710,o),
(391,710,cs),
(150,710,o),
(36,597,o),
(36,352,cs),
(36,107,o),
(149,-8,o),
(388,-8,cs)
);
}
);
width = 581;
},
{
layerId = "60D037D9-62E9-4843-B070-F1594CB0B0D1";
shapes = (
{
closed = 1;
nodes = (
(441,-8,o),
(496,7,o),
(531,32,c),
(532,138,o),
(535,218,o),
(539,295,c),
(435,295,l),
(443,264,o),
(446,212,o),
(440,210,cs),
(410,201,o),
(374,196,o),
(333,196,cs),
(154,196,o),
(105,213,o),
(105,276,cs),
(105,333,o),
(157,350,o),
(330,350,cs),
(419,350,o),
(517,340,o),
(531,330,c),
(531,680,l),
(500,699,o),
(445,710,o),
(385,710,cs),
(144,710,o),
(30,597,o),
(30,352,cs),
(30,107,o),
(143,-8,o),
(382,-8,cs)
);
}
);
width = 538;
}
);
metricLeft = C;
metricRight = C;
unicode = 71;
},
{
color = 5;
glyphname = H;
lastChange = "2023-11-03 19:28:48 +0000";
layers = (
{
anchors = (
{
name = bottom;
pos = (356,0);
},
{
name = center;
pos = (356,350);
},
{
name = top;
pos = (356,700);
},
{
name = topleft;
pos = (20,700);
}
);
layerId = m01;
shapes = (
{
closed = 1;
nodes = (
(154,0,l),
(149,78,o),
(149,89,o),
(149,119,cs),
(149,209,o),
(172,220,o),
(356,220,cs),
(540,220,o),
(563,209,o),
(563,119,cs),
(563,89,o),
(563,78,o),
(558,0,c),
(660,0,l),
(650,233,o),
(650,467,o),
(660,700,c),
(558,700,l),
(563,581,ls),
(565,533,o),
(545,528,o),
(356,528,cs),
(167,528,o),
(147,533,o),
(149,581,cs),
(154,700,l),
(52,700,l),
(62,467,o),
(62,233,o),
(52,0,c)
);
}
);
width = 712;
},
{
anchors = (
{
name = bottom;
pos = (301,0);
},
{
name = center;
pos = (301,350);
},
{
name = top;
pos = (301,700);
},
{
name = topleft;
pos = (20,700);
}
);
layerId = "60D037D9-62E9-4843-B070-F1594CB0B0D1";
shapes = (
{
closed = 1;
nodes = (
(103,0,l),
(101,81,o),
(101,110,o),
(101,296,cs),
(101,327,o),
(114,329,o),
(301,329,cs),
(488,329,o),
(501,327,o),
(501,296,cs),
(501,110,o),
(501,81,o),
(499,0,c),
(522,0,l),
(519,233,o),
(519,467,o),
(522,700,c),
(499,700,l),
(501,399,ls),
(501,368,o),
(488,366,o),
(301,366,cs),
(114,366,o),
(101,368,o),
(101,399,cs),
(103,700,l),
(80,700,l),
(83,467,o),
(83,233,o),
(80,0,c)
);
}
);
width = 602;
}
);
unicode = 72;
},
{
color = 4;
glyphname = I;
lastChange = "2023-11-03 19:28:48 +0000";
layers = (
{
anchors = (
{
name = bottom;
pos = (249,0);
},
{
name = ogonek;
pos = (445,0);
},
{
name = top;
pos = (249,700);
},
{
name = topleft;
pos = (22,700);
}
);
layerId = m01;
shapes = (
{
closed = 1;
nodes = (
(445,0,l),
(445,193,l),
(384,193,o),
(338,197,o),
(312,204,cs),
(291,212,o),
(285,239,o),
(285,329,cs),
(285,411,o),
(291,436,o),
(312,444,cs),
(338,451,o),
(384,455,o),
(445,455,c),
(445,699,l),
(52,699,l),
(52,455,l),
(113,455,o),
(159,451,o),
(185,444,cs),
(206,436,o),
(212,411,o),
(212,329,cs),
(212,239,o),
(206,212,o),
(185,204,cs),
(159,197,o),
(113,193,o),
(52,193,c),
(52,0,l)
);
}
);
width = 497;
},
{
anchors = (
{
name = bottom;
pos = (221,0);
},
{
name = ogonek;
pos = (382,0);
},
{
name = top;
pos = (221,700);
},
{
name = topleft;
pos = (-1,700);
}
);
layerId = "60D037D9-62E9-4843-B070-F1594CB0B0D1";
shapes = (
{
closed = 1;
nodes = (
(361,0,l),
(361,23,l),
(278,23,o),
(262,24,o),
(250,30,cs),
(233,38,o),
(231,57,o),
(231,258,cs),
(231,645,o),
(231,645,o),
(258,655,cs),
(285,663,o),
(311,666,o),
(361,666,c),
(361,699,l),
(80,699,l),
(80,666,l),
(130,666,o),
(156,663,o),
(183,655,cs),
(210,645,o),
(210,645,o),
(210,258,cs),
(210,57,o),
(208,38,o),
(191,30,cs),
(179,24,o),
(163,23,o),
(80,23,c),
(80,0,l)
);
}
);
width = 441;
}
);
metricLeft = H;
metricRight = H;
unicode = 73;
},
{
color = 1;
glyphname = J;
lastChange = "2023-11-03 19:28:48 +0000";
layers = (
{
anchors = (
{
name = bottom;
pos = (263,0);
},
{
name = top;
pos = (263,700);
}
);
layerId = m01;
shapes = (
{
closed = 1;
nodes = (
(321,-16,o),
(373,43,o),
(373,190,cs),
(373,399,ls),
(373,423,o),
(381,434,o),
(400,441,cs),
(420,447,o),
(457,452,o),
(513,452,c),
(513,700,l),
(99,700,l),
(99,452,l),
(185,452,o),
(242,450,o),
(273,441,cs),
(292,434,o),
(300,423,o),
(300,399,cs),
(300,279,ls),
(300,222,o),
(291,196,o),
(221,196,cs),
(82,196,o),
(57,206,o),
(34,216,c),
(34,14,l),
(61,4,o),
(97,-16,o),
(213,-16,cs)
);
}
);
width = 525;
},
{
anchors = (
{
name = bottom;
pos = (312,0);
},
{
name = top;
pos = (312,700);
}
);
layerId = "60D037D9-62E9-4843-B070-F1594CB0B0D1";
shapes = (
{
closed = 1;
nodes = (
(345,-16,o),
(397,43,o),
(397,190,cs),
(397,399,ls),
(397,423,o),
(405,434,o),
(424,441,cs),
(444,447,o),
(481,452,o),
(537,452,c),
(537,700,l),
(123,700,l),
(123,452,l),
(209,452,o),
(266,450,o),
(297,441,cs),
(316,434,o),
(324,423,o),
(324,399,cs),
(324,279,ls),
(324,222,o),
(315,196,o),
(245,196,cs),
(106,196,o),
(81,206,o),
(58,216,c),
(58,14,l),
(85,4,o),
(121,-16,o),
(237,-16,cs)
);
}
);
width = 624;
}
);
metricLeft = O;
unicode = 74;
},
{
color = 8;
glyphname = K;
lastChange = "2023-11-03 19:28:48 +0000";
layers = (
{
anchors = (
{
name = bottom;
pos = (350,0);
},
{
name = top;
pos = (350,700);
}
);
layerId = m01;
shapes = (
{
closed = 1;
nodes = (
(156,0,l),
(152,75,o),
(148,164,o),
(148,224,cs),
(148,251,o),
(160,259,o),
(189,259,cs),
(230,259,o),
(236,218,o),
(245,164,cs),
(277,0,l),
(650,0,l),
(616,198,ls),
(611,241,o),
(588,276,o),
(451,276,cs),
(319,276,o),
(299,281,o),
(299,308,cs),
(299,330,o),
(315,335,o),
(451,335,cs),
(596,335,o),
(610,364,o),
(618,442,cs),
(642,700,l),
(262,699,l),
(239,424,ls),
(230,339,o),
(215,327,o),
(194,327,cs),
(170,327,o),
(158,340,o),
(155,397,cs),
(152,458,o),
(156,588,o),
(156,700,c),
(52,700,l),
(63,467,o),
(63,233,o),
(52,0,c)
);
}
);
width = 698;
},
{
anchors = (
{
name = bottom;
pos = (345,0);
},
{
name = top;
pos = (345,700);
}
);
layerId = "60D037D9-62E9-4843-B070-F1594CB0B0D1";
shapes = (
{
closed = 1;
nodes = (
(678,0,l),
(644,198,ls),
(639,241,o),
(616,276,o),
(479,276,cs),
(347,276,o),
(327,281,o),
(327,308,cs),
(327,330,o),
(343,335,o),
(479,335,cs),
(624,335,o),
(638,364,o),
(646,442,cs),
(670,700,l),
(290,699,l),
(267,424,ls),
(258,339,o),
(243,327,o),
(222,327,cs),
(198,327,o),
(186,340,o),
(183,397,cs),
(180,458,o),
(184,588,o),
(184,700,c),
(80,700,l),
(91,467,o),
(91,233,o),
(80,0,c),
(184,0,l),
(180,75,o),
(176,164,o),
(176,224,cs),
(176,251,o),
(188,259,o),
(217,259,cs),
(258,259,o),
(264,218,o),
(273,164,cs),
(305,0,l)
);
}
);
width = 690;
}
);
metricLeft = H;
unicode = 75;
},
{
color = 1;
glyphname = L;
lastChange = "2023-11-03 19:28:48 +0000";
layers = (
{
anchors = (
{
name = bottom;
pos = (224,0);
},
{
name = center;
pos = (224,350);
},
{
name = top;
pos = (224,700);
},
{
name = topright;
pos = (428,700);
}
);
layerId = m01;
shapes = (
{
closed = 1;
nodes = (
(436,0,l),
(432,88,o),
(432,176,o),
(436,264,c),
(339,261,ls),
(307,260,o),
(270,259,o),
(240,259,cs),
(122,259,o),
(109,275,o),
(109,332,cs),
(109,363,o),
(113,482,o),
(127,701,c),
(31,701,l),
(33,584,o),
(34,467,o),
(34,351,cs),
(34,234,o),
(33,117,o),
(31,0,c)
);
}
);
width = 448;
},
{
anchors = (
{
name = bottom;
pos = (300,0);
},
{
name = center;
pos = (300,350);
},
{
name = top;
pos = (300,700);
},
{
name = topright;
pos = (580,700);
}
);
layerId = "60D037D9-62E9-4843-B070-F1594CB0B0D1";
shapes = (
{
closed = 1;
nodes = (
(436,0,l),
(432,88,o),
(432,176,o),
(436,264,c),
(339,261,ls),
(307,260,o),
(270,259,o),
(240,259,cs),
(122,259,o),
(109,275,o),
(109,332,cs),
(109,363,o),
(113,482,o),
(127,701,c),
(31,701,l),
(33,584,o),
(34,467,o),
(34,351,cs),
(34,234,o),
(33,117,o),
(31,0,c)
);
}
);
width = 600;
}
);
unicode = 76;
},
{
color = 4;
glyphname = M;
lastChange = "2023-11-03 19:28:48 +0000";
layers = (
{
anchors = (
{
name = bottom;
pos = (411,0);
},
{
name = top;
pos = (411,700);
}
);
background = {
shapes = (
{
pos = (52,0);
ref = H;
}
);
};
layerId = m01;
shapes = (
{
closed = 1;
nodes = (
(162,0,l),
(146,97,o),
(137,182,o),
(137,249,cs),
(137,283,o),
(143,305,o),
(156,316,cs),
(166,326,o),
(182,329,o),
(217,329,cs),
(256,329,o),
(277,324,o),
(291,312,cs),
(318,286,o),
(323,263,o),
(359,0,c),
(463,0,l),
(499,263,o),
(504,286,o),
(531,312,cs),
(545,324,o),
(566,329,o),
(605,329,cs),
(640,329,o),
(656,326,o),
(666,316,cs),
(679,305,o),
(685,283,o),
(685,249,cs),
(685,182,o),
(676,97,o),
(660,0,c),
(770,0,l),
(766,117,o),
(764,233,o),
(764,350,cs),
(764,467,o),
(766,584,o),
(770,700,c),
(472,700,l),
(454,363,o),
(452,353,o),
(411,353,cs),
(370,353,o),
(368,363,o),
(350,700,c),
(52,700,l),
(56,584,o),
(58,467,o),
(58,350,cs),
(58,233,o),
(56,117,o),
(52,0,c)
);
}
);
width = 822;
},
{
anchors = (
{
name = bottom;
pos = (377,0);
},
{
name = top;
pos = (377,700);
}
);
layerId = "60D037D9-62E9-4843-B070-F1594CB0B0D1";
shapes = (
{
closed = 1;
nodes = (
(108,0,l),
(103,207,o),
(102,350,o),
(102,447,cs),
(102,564,o),
(104,614,o),
(107,627,cs),
(113,656,o),
(145,658,o),
(181,658,cs),
(204,658,o),
(230,656,o),
(236,627,cs),
(255,541,o),
(317,252,o),
(335,128,c),
(419,128,l),
(437,252,o),
(499,541,o),
(518,627,cs),
(524,656,o),
(550,658,o),
(573,658,cs),
(609,658,o),
(641,658,o),
(647,627,cs),
(650,614,o),
(652,564,o),
(652,447,cs),
(652,350,o),
(651,207,o),
(646,0,c),
(674,0,l),
(673,117,o),
(672,233,o),
(672,350,cs),
(672,467,o),
(673,584,o),
(674,700,c),
(508,700,l),
(400,206,o),
(421,171,o),
(377,171,cs),
(333,171,o),
(354,206,o),
(246,700,c),
(80,700,l),
(82,584,o),
(82,467,o),
(82,350,cs),
(82,233,o),
(82,117,o),
(80,0,c)
);
}
);
width = 754;
}
);
metricLeft = H;
metricRight = H;
unicode = 77;
},
{
color = 4;
glyphname = N;
lastChange = "2023-11-03 19:28:48 +0000";
layers = (
{
anchors = (
{
name = bottom;
pos = (317,0);
},
{
name = top;
pos = (317,700);
}
);
layerId = m01;
shapes = (
{
closed = 1;
nodes = (
(161,0,l),
(151,102,o),
(147,157,o),
(147,209,cs),
(147,251,o),
(151,280,o),
(159,297,cs),
(171,320,o),
(189,329,o),
(224,329,cs),
(265,329,o),
(292,319,o),
(315,296,cs),
(348,263,o),
(358,239,o),
(439,0,c),
(615,0,l),
(608,130,o),
(604,245,o),
(604,350,cs),
(604,456,o),
(608,571,o),
(615,700,c),
(506,700,l),
(520,542,o),
(519,554,o),
(519,515,cs),
(519,422,o),
(510,403,o),
(467,403,cs),
(442,403,o),
(420,416,o),
(404,441,cs),
(372,492,o),
(347,554,o),
(302,700,c),
(52,700,l),
(60,551,o),
(63,446,o),
(63,350,cs),
(63,255,o),
(60,151,o),
(52,0,c)
);
}
);
width = 663;
},
{
anchors = (
{
name = bottom;
pos = (318,0);
},
{
name = top;
pos = (318,700);
}
);
layerId = "60D037D9-62E9-4843-B070-F1594CB0B0D1";
shapes = (
{
closed = 1;
nodes = (
(109,0,l),
(106,111,o),
(104,213,o),
(104,312,cs),
(104,450,o),
(106,553,o),
(110,610,cs),
(112,651,o),
(120,657,o),
(175,657,cs),
(224,657,o),
(245,644,o),
(254,610,cs),
(298,448,o),
(324,360,o),
(434,0,c),
(567,0,l),
(562,316,o),
(561,393,o),
(561,495,cs),
(561,514,o),
(562,561,o),
(565,700,c),
(532,700,l),
(540,362,o),
(543,200,o),
(543,104,cs),
(543,23,o),
(543,23,o),
(511,23,cs),
(462,23,o),
(462,23,o),
(432,100,cs),
(390,210,o),
(314,500,o),
(255,700,c),
(80,700,l),
(82,584,o),
(83,467,o),
(83,350,cs),
(83,233,o),
(82,117,o),
(80,0,c)
);
}
);
width = 639;
}
);
unicode = 78;
},
{
color = 5;
glyphname = O;
lastChange = "2023-11-03 19:28:48 +0000";
layers = (
{
anchors = (
{
name = bottom;
pos = (338,0);
},
{
name = center;
pos = (338,350);
},
{
name = ogonek;
pos = (608,10);
},
{
name = top;
pos = (338,700);
},
{
name = topleft;
pos = (20,700);
},
{
name = topright;
pos = (656,700);
}
);
layerId = m01;
shapes = (
{
closed = 1;
nodes = (
(537,-8,o),
(642,115,o),
(642,349,cs),
(642,584,o),
(536,710,o),
(338,710,cs),
(140,710,o),
(34,584,o),
(34,348,cs),
(34,114,o),
(138,-8,o),
(337,-8,cs)
);
},
{
closed = 1;
nodes = (
(139,196,o),
(109,207,o),
(109,280,cs),
(109,342,o),
(135,350,o),
(341,350,cs),
(548,350,o),
(575,342,o),
(575,280,cs),
(575,208,o),
(542,196,o),
(339,196,cs)
);
}
);
width = 676;
},
{
anchors = (
{
name = bottom;
pos = (315,0);
},
{
name = center;
pos = (315,350);
},
{
name = ogonek;
pos = (567,10);
},
{
name = top;
pos = (315,700);
},
{
name = topleft;
pos = (20,700);
},
{
name = topright;
pos = (610,700);
}
);
layerId = "60D037D9-62E9-4843-B070-F1594CB0B0D1";
shapes = (
{
closed = 1;
nodes = (
(483,-9,o),
(572,117,o),
(572,355,cs),
(572,589,o),
(484,711,o),
(315,711,cs),
(146,711,o),
(58,589,o),
(58,355,cs),
(58,117,o),
(147,-9,o),
(316,-9,cs)
);
},
{
closed = 1;
nodes = (
(161,10,o),
(79,129,o),
(79,355,cs),
(79,560,o),
(160,668,o),
(315,668,cs),
(470,668,o),
(551,560,o),
(551,355,cs),
(551,129,o),
(470,10,o),
(316,10,cs)
);
}
);
width = 630;
}
);
unicode = 79;
},
{
color = 1;
glyphname = R;
lastChange = "2023-11-03 19:18:54 +0000";
layers = (
{
layerId = m01;
shapes = (
{
closed = 1;
nodes = (
(184,0,l),
(168,93,o),
(159,175,o),
(159,239,cs),
(159,275,o),
(166,297,o),
(181,308,c),
(201,318,o),
(239,324,o),
(283,324,cs),
(383,324,o),
(454,333,o),
(490,350,cs),
(553,380,o),
(573,423,o),
(573,526,cs),
(573,622,o),
(499,698,o),
(403,699,cs),
(55,701,l),
(58,350,ls),
(58,233,o),
(56,117,o),
(52,0,c)
);
},
{
closed = 1;
nodes = (
(512,-7,o),
(529,-3,o),
(571,17,c),
(571,262,l),
(540,250,o),
(488,242,o),
(440,242,cs),
(345,242,o),
(316,262,o),
(316,330,c),
(241,329,l),
(241,194,o),
(272,98,o),
(331,51,cs),
(378,13,o),
(429,-7,o),
(479,-7,cs)
);
},
{
closed = 1;
nodes = (
(218,374,o),
(184,376,o),
(162,381,cs),
(143,386,o),
(133,395,o),
(133,407,cs),
(133,420,o),
(142,428,o),
(160,433,cs),
(184,439,o),
(228,442,o),
(293,442,cs),
(375,442,o),
(405,440,o),
(427,433,cs),
(446,428,o),
(455,420,o),
(455,407,cs),
(455,396,o),
(448,388,o),
(431,383,cs),
(408,376,o),
(372,374,o),
(293,374,cs)
);
}
);
width = 597;
},
{
layerId = "60D037D9-62E9-4843-B070-F1594CB0B0D1";
shapes = (
{
closed = 1;
nodes = (
(212,0,l),
(196,93,o),
(187,175,o),
(187,239,cs),
(187,275,o),
(194,297,o),
(209,308,c),
(229,318,o),
(267,324,o),
(311,324,cs),
(411,324,o),
(482,333,o),
(518,350,cs),
(581,380,o),
(601,423,o),
(601,526,cs),
(601,623,o),
(527,698,o),
(431,699,cs),
(83,701,l),
(86,350,ls),
(86,233,o),
(84,117,o),
(80,0,c)
);
},
{
closed = 1;
nodes = (
(540,-7,o),
(557,-3,o),
(599,17,c),
(599,262,l),
(568,250,o),
(516,242,o),
(468,242,cs),
(373,242,o),
(344,262,o),
(344,330,c),
(269,329,l),
(269,194,o),
(300,98,o),
(359,51,cs),
(406,13,o),
(457,-7,o),
(507,-7,cs)
);
},
{
closed = 1;
nodes = (
(246,374,o),
(212,376,o),
(190,381,cs),
(171,386,o),
(161,395,o),
(161,407,cs),
(161,420,o),
(170,428,o),
(188,433,cs),
(212,439,o),
(256,442,o),
(321,442,cs),
(403,442,o),
(433,440,o),
(455,433,cs),
(474,428,o),
(483,420,o),
(483,407,cs),
(483,395,o),
(475,388,o),
(459,383,cs),
(438,377,o),
(407,374,o),
(321,374,cs)
);
}
);
width = 656;
}
);
metricLeft = H;
unicode = 82;
},
{
color = 3;
glyphname = S;
lastChange = "2023-11-03 19:28:48 +0000";
layers = (
{
anchors = (
{
name = bottom;
pos = (276,0);
},
{
name = top;
pos = (276,700);
}
);
background = {
shapes = (
{
closed = 1;
nodes = (
(446,-1,o),
(522,55,o),
(522,182,cs),
(522,303,o),
(418,340,o),
(332,363,cs),
(271,380,o),
(218,390,o),
(218,419,cs),
(218,435,o),
(236,445,o),
(308,447,cs),
(379,449,o),
(451,447,o),
(522,446,c),
(522,696,l),
(455,702,o),
(388,702,o),
(321,702,cs),
(146,702,o),
(40,618,o),
(40,479,cs),
(40,355,o),
(136,318,o),
(230,297,cs),
(290,284,o),
(350,278,o),
(382,259,cs),
(415,240,o),
(417,201,o),
(382,194,cs),
(337,185,o),
(68,201,o),
(45,202,c),
(46,0,l),
(281,-1,l)
);
}
);
};
backgroundImage = {
imagePath = /Users/mirkovelimirovic/Downloads/IMG_7408.JPG;
locked = 1;
pos = (-861,-1771);
scale = (0.7854,0.7854);
};
layerId = m01;
shapes = (
{
closed = 1;
nodes = (
(447,-1,o),
(522,56,o),
(522,182,cs),
(522,265,o),
(473,307,o),
(332,346,cs),
(244,370,o),
(218,386,o),
(218,419,cs),
(218,439,o),
(248,450,o),
(308,452,cs),
(363,454,o),
(424,451,o),
(522,443,c),
(522,693,l),
(429,703,o),
(375,707,o),
(321,707,cs),
(148,707,o),
(40,619,o),
(40,479,cs),
(40,382,o),
(99,326,o),
(230,297,cs),
(370,267,o),
(407,251,o),
(407,221,cs),
(407,198,o),
(388,194,o),
(268,194,cs),
(209,194,o),
(323,190,o),
(45,202,c),
(46,0,l),
(124,0,o),
(203,-1,o),
(281,-1,c)
);
}
);
width = 572;
},
{
anchors = (
{
name = bottom;
pos = (241,0);
},
{
name = top;
pos = (241,700);
}
);
background = {
shapes = (
{
closed = 1;
nodes = (
(332,-3,o),
(425,60,o),
(425,167,cs),
(425,284,o),
(330,314,o),
(241,347,cs),
(161,376,o),
(86,406,o),
(86,500,cs),
(86,595,o),
(155,661,o),
(253,661,cs),
(309,661,o),
(325,660,o),
(401,655,c),
(401,698,l),
(367,701,o),
(332,702,o),
(262,702,cs),
(144,702,o),
(54,621,o),
(54,513,cs),
(54,396,o),
(142,359,o),
(229,327,cs),
(317,295,o),
(404,268,o),
(404,173,cs),
(404,105,o),
(371,33,o),
(222,21,cs),
(176,17,o),
(91,21,o),
(68,24,c),
(69,3,l),
(104,1,o),
(140,-1,o),
(175,-1,cs)
);
}
);
};
layerId = "60D037D9-62E9-4843-B070-F1594CB0B0D1";
shapes = (
{
closed = 1;
nodes = (
(338,-3,o),
(435,60,o),
(435,167,cs),
(435,251,o),
(392,291,o),
(241,347,cs),
(126,389,o),
(86,428,o),
(86,500,cs),
(86,599,o),
(152,658,o),
(263,658,cs),
(302,658,o),
(354,653,o),
(400,644,c),
(407,694,l),
(337,703,o),
(307,705,o),
(268,705,cs),
(144,705,o),
(54,624,o),
(54,513,cs),
(54,424,o),
(101,374,o),
(229,327,cs),
(375,274,o),
(414,242,o),
(414,173,cs),
(414,74,o),
(332,19,o),
(183,19,cs),
(126,19,o),
(73,25,o),
(48,35,c),
(49,11,l),
(100,2,o),
(135,-1,o),
(175,-1,cs)
);
}
);
width = 483;
}
);
unicode = 83;
},
{
color = 3;
glyphname = T;
lastChange = "2023-11-03 19:28:48 +0000";
layers = (
{
background = {
shapes = (
{
closed = 1;
nodes = (
(582,699,l),
(273,701,o),
(173,700,o),
(64,701,c),
(68,467,o),
(68,234,o),
(64,0,c),
(180,0,o),
(282,0,o),
(582,0,c),
(582,193,l),
(573,192,o),
(346,192,o),
(325,192,cs),
(244,192,o),
(198,194,o),
(169,202,cs),
(143,208,o),
(134,221,o),
(134,239,cs),
(134,254,o),
(144,265,o),
(166,272,cs),
(195,282,o),
(247,286,o),
(325,286,cs),
(345,286,o),
(573,283,o),
(582,282,c),
(582,361,l),
(573,360,o),
(334,357,o),
(302,357,cs),
(235,357,o),
(195,358,o),
(171,366,cs),
(149,373,o),
(142,384,o),
(142,398,cs),
(142,413,o),
(150,424,o),
(169,431,cs),
(193,438,o),
(236,442,o),
(302,442,cs),
(334,442,o),
(573,442,o),
(582,441,c)
);
},
{
closed = 1;
nodes = (
(376,0,l),
(376,21,ls),
(376,200,o),
(371,350,o),
(371,388,cs),
(371,412,o),
(379,423,o),
(398,430,cs),
(422,437,o),
(465,441,o),
(531,441,cs),
(629,441,l),
(629,699,l),
(40,699,l),
(40,441,l),
(138,441,ls),
(204,441,o),
(247,437,o),
(271,430,cs),
(290,423,o),
(298,412,o),
(298,388,cs),
(298,350,o),
(297,205,o),
(294,28,c),
(293,19,o),
(293,10,o),
(293,0,c)
);
}
);
};
layerId = m01;
shapes = (
{
closed = 1;
nodes = (
(387,0,l),
(382,120,o),
(379,275,o),
(379,388,cs),
(379,412,o),
(387,426,o),
(406,433,cs),
(435,442,o),
(482,446,o),
(531,444,cs),
(629,441,l),
(629,699,l),
(40,699,l),
(40,441,l),
(138,444,ls),
(187,446,o),
(234,442,o),
(263,433,cs),
(282,426,o),
(290,412,o),
(290,388,cs),
(290,275,o),
(287,120,o),
(282,0,c)
);
}
);
width = 669;
},
{
layerId = "60D037D9-62E9-4843-B070-F1594CB0B0D1";
shapes = (
{
closed = 1;
nodes = (
(346,0,l),
(346,294,o),
(341,541,o),
(341,603,cs),
(341,630,o),
(349,649,o),
(368,656,cs),
(391,663,o),
(435,666,o),
(501,662,cs),
(599,656,l),
(599,699,l),
(60,699,l),
(60,656,l),
(158,662,ls),
(224,666,o),
(268,663,o),
(291,656,cs),
(310,649,o),
(318,630,o),
(318,603,cs),
(318,541,o),
(313,294,o),
(313,0,c)
);
}
);
width = 669;
}
);
unicode = 84;
},
{
color = 1;
glyphname = U;
lastChange = "2023-11-03 19:28:48 +0000";
layers = (
{
anchors = (
{
name = bottom;
pos = (257,0);
},
{
name = ogonek;
pos = (497,10);
},
{
name = top;
pos = (257,700);
},
{
name = topright;
pos = (537,700);
}
);
layerId = m01;
shapes = (
{
closed = 1;
nodes = (
(538,-9,o),
(599,59,o),
(602,302,cs),
(605,700,l),
(493,700,l),
(498,455,ls),
(499,388,o),
(449,360,o),
(325,360,cs),
(201,360,o),
(152,387,o),
(153,455,cs),
(159,700,l),
(48,700,l),
(49,310,ls),
(50,56,o),
(106,-9,o),
(325,-9,cs)
);
}
);
width = 653;
},
{
anchors = (
{
name = bottom;
pos = (300,0);
},
{
name = ogonek;
pos = (540,10);
},
{
name = top;
pos = (300,700);
},
{
name = topright;
pos = (580,700);
}
);
layerId = "60D037D9-62E9-4843-B070-F1594CB0B0D1";
shapes = (
{
closed = 1;
nodes = (
(540,-9,o),
(599,61,o),
(602,302,cs),
(605,700,l),
(493,700,l),
(498,455,ls),
(499,384,o),
(442,360,o),
(325,360,cs),
(208,360,o),
(152,384,o),
(153,455,cs),
(159,700,l),
(48,700,l),
(49,310,ls),
(50,52,o),
(110,-9,o),
(325,-9,cs)
);
}
);
width = 600;
}
);
unicode = 85;
},
{
color = 3;
glyphname = V;
lastChange = "2023-11-03 19:25:01 +0000";
layers = (
{
layerId = m01;
shapes = (
{
closed = 1;
nodes = (
(540,0,l),
(547,224,o),
(570,452,o),
(610,700,c),
(501,700,l),
(490,623,o),
(479,553,o),
(450,386,cs),
(440,331,o),
(436,329,o),
(310,329,cs),
(184,329,o),
(180,331,o),
(170,386,cs),
(141,553,o),
(130,623,o),
(119,700,c),
(12,700,l),
(52,452,o),
(75,224,o),
(82,0,c)
);
}
);
width = 622;
},
{
layerId = "60D037D9-62E9-4843-B070-F1594CB0B0D1";
shapes = (
{
closed = 1;
nodes = (
(459,0,l),
(474,232,o),
(497,468,o),
(528,700,c),
(488,700,l),
(481,490,o),
(460,280,o),
(442,70,cs),
(439,39,o),
(429,37,o),
(289,37,cs),
(149,37,o),
(139,39,o),
(136,70,cs),
(118,280,o),
(97,490,o),
(90,700,c),
(50,700,l),
(81,468,o),
(104,232,o),
(119,0,c)
);
}
);
width = 578;
}
);
unicode = 86;
},
{
color = 0;
glyphname = Y;
lastChange = "2023-11-03 19:28:48 +0000";
layers = (
{
anchors = (
{
name = bottom;
pos = (281,0);
},
{
name = top;
pos = (281,700);
},
{
name = topleft;
pos = (20,700);
}
);
layerId = m01;
shapes = (
{
closed = 1;
nodes = (
(344,200,ls),
(418,200,o),
(428,208,o),
(451,309,cs),
(541,700,l),
(461,700,l),
(416,515,ls),
(406,475,o),
(401,474,o),
(281,474,cs),
(161,474,o),
(155,475,o),
(145,515,cs),
(100,700,l),
(20,700,l),
(110,309,ls),
(133,208,o),
(143,200,o),
(217,200,cs)
);
},
{
closed = 1;
nodes = (
(336,0,l),
(322,102,o),
(322,203,o),
(336,305,c),
(225,305,l),
(239,203,o),
(239,102,o),
(225,0,c)
);
}
);
width = 544;
},
{
anchors = (
{
name = bottom;
pos = (300,0);
},
{
name = top;
pos = (300,700);
},
{
name = topleft;
pos = (20,700);
}
);
layerId = "60D037D9-62E9-4843-B070-F1594CB0B0D1";
width = 600;
}
);
unicode = 89;
},
{
glyphname = E.a;
lastChange = "2023-11-01 16:21:06 +0000";
layers = (
{
background = {
shapes = (
{
closed = 1;
nodes = (
(34,467,o),
(34,234,o),
(30,0,c),
(159,0,o),
(270,0,o),
(378,0,cs),
(467,0,o),
(592,25,o),
(592,202,cs),
(592,348,o),
(455,368,o),
(455,368,cs),
(455,368,o),
(548,374,o),
(548,526,cs),
(548,568,o),
(529,697,o),
(378,699,cs),
(258,701,o),
(150,700,o),
(30,701,c)
);
},
{
closed = 1;
nodes = (
(210,192,o),
(164,196,o),
(135,207,cs),
(109,218,o),
(100,236,o),
(100,265,cs),
(100,288,o),
(110,305,o),
(132,316,cs),
(161,331,o),
(213,337,o),
(291,337,cs),
(369,337,o),
(418,332,o),
(447,318,cs),
(470,306,o),
(480,289,o),
(480,265,cs),
(480,238,o),
(474,221,o),
(452,210,cs),
(424,196,o),
(376,192,o),
(291,192,cs)
);
},
{
closed = 1;
nodes = (
(201,374,o),
(161,375,o),
(137,381,cs),
(115,387,o),
(108,396,o),
(108,407,cs),
(108,419,o),
(116,428,o),
(135,433,cs),
(159,439,o),
(202,442,o),
(268,442,cs),
(336,442,o),
(377,441,o),
(402,433,cs),
(421,428,o),
(430,420,o),
(430,407,cs),
(430,396,o),
(424,387,o),
(406,383,cs),
(382,375,o),
(341,374,o),
(268,374,cs)
);
}
);
};
layerId = m01;
shapes = (
{
closed = 1;
nodes = (
(146,0,o),
(248,0,o),
(548,0,c),
(548,193,l),
(330,192,o),
(312,192,o),
(291,192,cs),
(210,192,o),
(164,196,o),
(135,207,cs),
(109,218,o),
(100,236,o),
(100,265,cs),
(100,288,o),
(110,305,o),
(132,316,cs),
(161,331,o),
(213,337,o),
(291,337,cs),
(311,337,o),
(330,337,o),
(548,336,c),
(548,375,l),
(325,374,o),
(300,374,o),
(268,374,cs),
(201,374,o),
(161,375,o),
(137,381,cs),
(115,387,o),
(108,396,o),
(108,407,cs),
(108,419,o),
(116,428,o),
(135,433,cs),
(159,439,o),
(202,442,o),
(268,442,cs),
(300,442,o),
(325,442,o),
(548,441,c),
(548,699,l),
(239,701,o),
(139,700,o),
(30,701,c),
(34,467,o),
(34,234,o),
(30,0,c)
);
}
);
width = 600;
},
{
layerId = "60D037D9-62E9-4843-B070-F1594CB0B0D1";
shapes = (
{
closed = 1;
nodes = (
(146,0,o),
(248,0,o),
(548,0,c),
(548,193,l),
(330,192,o),
(312,192,o),
(291,192,cs),
(210,192,o),
(164,196,o),
(135,207,cs),
(109,218,o),
(100,236,o),
(100,265,cs),
(100,288,o),
(110,305,o),
(132,316,cs),
(161,331,o),
(213,337,o),
(291,337,cs),
(311,337,o),
(330,337,o),
(548,336,c),
(548,375,l),
(325,374,o),
(300,374,o),
(268,374,cs),
(201,374,o),
(161,375,o),
(137,381,cs),
(115,387,o),
(108,396,o),
(108,407,cs),
(108,419,o),
(116,428,o),
(135,433,cs),
(159,439,o),
(202,442,o),
(268,442,cs),
(300,442,o),
(325,442,o),
(548,441,c),
(548,699,l),
(239,701,o),
(139,700,o),
(30,701,c),
(34,467,o),
(34,234,o),
(30,0,c)
);
}
);
width = 600;
}
);
},
{
color = 6;
glyphname = a;
lastChange = "2023-11-03 19:29:08 +0000";
layers = (
{
anchors = (
{
name = bottom;
pos = (282,0);
},
{
name = ogonek;
pos = (507,10);
},
{
name = top;
pos = (282,500);
}
);
layerId = m01;
shapes = (
{
closed = 1;
nodes = (
(350,-8,o),
(417,22,o),
(459,76,c),
(459,53,o),
(458,28,o),
(458,0,c),
(538,0,l),
(534,233,o),
(534,269,o),
(538,502,c),
(458,502,l),
(458,484,o),
(459,466,o),
(459,450,c),
(416,503,o),
(350,528,o),
(264,528,cs),
(108,528,o),
(14,446,o),
(14,258,cs),
(14,90,o),
(108,-8,o),
(264,-8,cs)
);
},
{
closed = 1;
nodes = (
(141,106,o),
(97,123,o),
(97,175,cs),
(97,227,o),
(141,244,o),
(255,244,cs),
(369,244,o),
(430,227,o),
(430,175,cs),
(430,123,o),
(369,106,o),
(255,106,cs)
);
}
);
width = 563;
},
{
anchors = (
{
name = bottom;
pos = (251,0);
},
{
name = ogonek;
pos = (451,10);
},
{
name = top;
pos = (233,509);
}
);
background = {
shapes = (
{
closed = 1;
nodes = (
(331,-16,o),
(387,49,o),
(412,123,c),
(412,82,o),
(412,41,o),
(411,0,c),
(434,0,l),
(431,233,o),
(431,467,o),
(434,700,c),
(411,700,l),
(412,588,o),
(413,475,o),
(413,363,c),
(388,435,o),
(329,497,o),
(209,497,cs),
(19,497,o),
(-21,357,o),
(-21,252,cs),
(-21,146,o),
(8,-16,o),
(209,-16,cs)
);
},
{
closed = 1;
nodes = (
(33,0,o),
(-1,146,o),
(-1,252,cs),
(-1,357,o),
(54,453,o),
(209,453,cs),
(364,453,o),
(411,357,o),
(411,252,cs),
(411,146,o),
(376,6,o),
(209,3,cs)
);
}
);
};
layerId = "60D037D9-62E9-4843-B070-F1594CB0B0D1";
shapes = (
{
closed = 1;
nodes = (
(363,-16,o),
(398,86,o),
(412,123,c),
(412,74,o),
(412,78,o),
(411,0,c),
(434,-1,l),
(431,226,o),
(433,253,o),
(436,480,c),
(413,480,l),
(413,406,o),
(413,400,o),
(413,336,c),
(399,414,o),
(332,497,o),
(215,497,cs),
(25,497,o),
(-21,357,o),
(-21,252,cs),
(-21,146,o),
(8,-16,o),
(209,-16,cs)
);
},
{
closed = 1;
nodes = (
(33,0,o),
(-1,146,o),
(-1,252,cs),
(-1,357,o),
(54,453,o),
(209,453,cs),
(364,453,o),
(411,357,o),
(411,252,cs),
(411,146,o),
(376,6,o),
(209,3,cs)
);
}
);
width = 501;
}
);
unicode = 97;
},
{
color = 6;
glyphname = b;
lastChange = "2023-11-03 19:29:08 +0000";
layers = (
{
anchors = (
{
name = bottom;
pos = (290,0);
},
{
name = center;
pos = (290,250);
},
{
name = top;
pos = (290,500);
}
);
layerId = m01;
shapes = (
{
closed = 1;
nodes = (
(465,-8,o),
(559,90,o),
(559,258,cs),
(559,446,o),
(465,528,o),
(309,528,cs),
(153,528,o),
(60,446,o),
(60,258,cs),
(60,90,o),
(153,-8,o),
(309,-8,cs)
);
},
{
closed = 1;
nodes = (
(115,0,l),
(111,233,o),
(111,467,o),
(115,700,c),
(35,700,l),
(39,467,o),
(39,233,o),
(35,0,c)
);
},
{
closed = 1;
nodes = (
(204,106,o),
(143,123,o),
(143,175,cs),
(143,227,o),
(204,244,o),
(318,244,cs),
(432,244,o),
(476,227,o),
(476,175,cs),
(476,123,o),
(432,106,o),
(318,106,cs)
);
}
);
width = 579;
},
{
anchors = (
{
name = bottom;
pos = (256,0);
},
{
name = center;
pos = (256,240);
},
{
name = top;
pos = (256,480);
}
);
layerId = "60D037D9-62E9-4843-B070-F1594CB0B0D1";
shapes = (
{
closed = 1;
nodes = (
(442,-8,o),
(471,150,o),
(471,258,cs),
(471,359,o),
(442,509,o),
(268,509,cs),
(94,509,o),
(65,359,o),
(65,258,cs),
(65,157,o),
(93,-8,o),
(268,-8,cs)
);
},
{
closed = 1;
nodes = (
(77,0,l),
(74,233,o),
(74,467,o),
(77,700,c),
(60,700,l),
(63,467,o),
(63,233,o),
(60,0,c)
);
},
{
closed = 1;
nodes = (
(113,11,o),
(75,150,o),
(75,258,cs),
(75,366,o),
(113,487,o),
(268,487,cs),
(423,487,o),
(461,366,o),
(461,258,cs),
(461,150,o),
(423,11,o),
(268,11,cs)
);
}
);
width = 511;
}
);
unicode = 98;
},
{
color = 0;
glyphname = c;
lastChange = "2023-11-03 18:06:18 +0000";
layers = (
{
anchors = (
{
name = bottom;
pos = (339,0);
},
{
name = top;
pos = (339,500);
}
);
layerId = m01;
shapes = (
{
closed = 1;
nodes = (
(478,-7,o),
(572,36,o),
(596,120,c),
(516,120,l),
(505,88,o),
(433,68,o),
(342,68,cs),
(206,68,o),
(157,97,o),
(157,177,cs),
(157,222,o),
(213,243,o),
(334,243,cs),
(476,243,o),
(515,231,o),
(526,182,c),
(603,182,l),
(603,474,o),
(576,508,o),
(342,508,cs),
(110,508,o),
(80,473,o),
(80,205,cs),
(80,49,o),
(144,-9,o),
(316,-8,cs)
);
}
);
width = 678;
},
{
anchors = (
{
name = bottom;
pos = (326,0);
},
{
name = top;
pos = (326,480);
}
);
layerId = "60D037D9-62E9-4843-B070-F1594CB0B0D1";
shapes = (
{
closed = 1;
nodes = (
(523,-8,o),
(558,41,o),
(568,153,c),
(548,153,l),
(540,58,o),
(516,7,o),
(341,7,cs),
(106,7,o),
(105,68,o),
(105,258,cs),
(105,473,o),
(141,493,o),
(353,493,cs),
(485,493,o),
(554,471,o),
(551,311,c),
(571,311,l),
(568,480,o),
(506,506,o),
(345,508,cs),
(137,508,o),
(90,492,o),
(90,258,cs),
(90,58,o),
(100,-8,o),
(333,-8,cs)
);
}
);
width = 651;
}
);
unicode = 99;
},
{
color = 0;
glyphname = d;
lastChange = "2023-11-03 18:06:18 +0000";
layers = (
{
anchors = (
{
name = bottom;
pos = (295,0);
},
{
name = center;
pos = (295,250);
},
{
name = top;
pos = (295,800);
},
{
name = topright;
pos = (564,800);
}
);
layerId = m01;
shapes = (
{
closed = 1;
nodes = (
(361,-8,o),
(427,22,o),
(470,76,c),
(470,51,o),
(469,25,o),
(469,0,c),
(549,0,l),
(545,233,o),
(545,467,o),
(549,700,c),
(469,700,l),
(470,616,o),
(471,532,o),
(472,448,c),
(429,503,o),
(362,528,o),
(275,528,cs),
(119,528,o),
(25,446,o),
(25,258,cs),
(25,90,o),
(119,-8,o),
(275,-8,cs)
);
},
{
closed = 1;
nodes = (
(152,106,o),
(108,123,o),
(108,175,cs),
(108,227,o),
(152,244,o),
(266,244,cs),
(380,244,o),
(441,227,o),
(441,175,cs),
(441,123,o),
(380,106,o),
(266,106,cs)
);
}
);
width = 589;
},
{
anchors = (
{
name = bottom;
pos = (256,0);
},
{
name = center;
pos = (256,240);
},
{
name = top;
pos = (256,800);
},
{
name = topright;
pos = (491,800);
}
);
background = {
shapes = (
{
closed = 1;
nodes = (
(371,-16,o),
(449,76,o),
(449,247,cs),
(449,410,o),
(371,496,o),
(222,496,cs),
(73,496,o),
(-5,410,o),
(-5,247,cs),
(-5,76,o),
(73,-16,o),
(222,-16,cs)
);
},
{
closed = 1;
nodes = (
(87,3,o),
(16,88,o),
(16,247,cs),
(16,382,o),
(87,453,o),
(222,453,cs),
(357,453,o),
(428,382,o),
(428,247,cs),
(428,88,o),
(357,3,o),
(222,3,cs)
);
}
);
};
layerId = "60D037D9-62E9-4843-B070-F1594CB0B0D1";
shapes = (
{
closed = 1;
nodes = (
(348,-16,o),
(404,49,o),
(429,123,c),
(429,82,o),
(429,41,o),
(428,0,c),
(451,0,l),
(448,233,o),
(448,467,o),
(451,700,c),
(428,700,l),
(429,588,o),
(430,451,o),
(430,339,c),
(410,411,o),
(356,497,o),
(230,497,cs),
(40,497,o),
(-4,357,o),
(-4,252,cs),
(-4,146,o),
(25,-16,o),
(226,-16,cs)
);
},
{
closed = 1;
nodes = (
(50,0,o),
(16,146,o),
(16,252,cs),
(16,357,o),
(71,453,o),
(226,453,cs),
(381,453,o),
(428,357,o),
(428,252,cs),
(428,146,o),
(393,6,o),
(226,3,cs)
);
}
);
width = 511;
}
);
unicode = 100;
},
{
color = 0;
glyphname = e;
lastChange = "2023-11-03 19:12:45 +0000";
layers = (
{
layerId = m01;
shapes = (
{
closed = 1;
nodes = (
(396,-12,o),
(437,-6,o),
(487,0,c),
(487,155,l),
(475,139,o),
(358,105,o),
(253,114,cs),
(178,121,o),
(109,150,o),
(87,222,c),
(81,207,l),
(127,173,o),
(172,143,o),
(294,143,cs),
(441,143,o),
(524,198,o),
(524,307,cs),
(524,428,o),
(434,516,o),
(272,516,cs),
(115,516,o),
(20,420,o),
(20,262,cs),
(20,148,o),
(71,50,o),
(182,8,cs),
(233,-11,o),
(284,-16,o),
(337,-14,cs)
);
},
{
closed = 1;
nodes = (
(156,230,o),
(101,241,o),
(101,264,cs),
(101,291,o),
(145,300,o),
(275,300,cs),
(397,300,o),
(452,288,o),
(452,264,cs),
(452,241,o),
(397,230,o),
(275,230,cs)
);
}
);
width = 548;
},
{
background = {
shapes = (
{
ref = o;
}
);
};
layerId = "60D037D9-62E9-4843-B070-F1594CB0B0D1";
shapes = (
{
closed = 1;
nodes = (
(396,-12,o),
(437,-6,o),
(487,0,c),
(487,155,l),
(475,139,o),
(358,105,o),
(253,114,cs),
(178,121,o),
(109,150,o),
(87,222,c),
(81,207,l),
(127,173,o),
(172,143,o),
(294,143,cs),
(441,143,o),
(524,198,o),
(524,307,cs),
(524,428,o),
(434,516,o),
(272,516,cs),
(115,516,o),
(20,420,o),
(20,262,cs),
(20,148,o),
(71,50,o),
(182,8,cs),
(233,-11,o),
(284,-16,o),
(337,-14,cs)
);
},
{
closed = 1;
nodes = (
(156,230,o),
(101,241,o),
(101,264,cs),
(101,291,o),
(145,300,o),
(275,300,cs),
(397,300,o),
(452,288,o),
(452,264,cs),
(452,241,o),
(397,230,o),
(275,230,cs)
);
}
);
width = 562;
}
);
unicode = 101;
},
{
color = 6;
glyphname = f;
lastChange = "2023-11-03 19:29:08 +0000";
layers = (
{
anchors = (
{
name = bottom;
pos = (296,0);
},
{
name = top;
pos = (296,800);
}
);
layerId = m01;
shapes = (
{
closed = 1;
nodes = (
(172,0,l),
(169,253,l),
(512,253,l),
(512,500,l),
(168,500,l),
(173,542,o),
(205,565,o),
(310,565,cs),
(378,565,o),
(447,545,o),
(482,526,c),
(482,726,l),
(447,748,o),
(389,763,o),
(310,763,cs),
(175,763,o),
(83,702,o),
(89,501,c),
(15,500,l),
(15,253,l),
(92,253,l),
(92,0,l)
);
}
);
width = 591;
},
{
anchors = (
{
name = bottom;
pos = (227,0);
},
{
name = top;
pos = (227,800);
}
);
layerId = "60D037D9-62E9-4843-B070-F1594CB0B0D1";
shapes = (
{
closed = 1;
nodes = (
(147,0,l),
(146,163,o),
(141,328,o),
(141,440,cs),
(141,777,o),
(221,788,o),
(335,788,cs),
(471,788,o),
(511,720,o),
(504,578,c),
(571,578,l),
(571,773,o),
(502,821,o),
(332,821,cs),
(162,821,o),
(97,766,o),
(97,504,cs),
(97,336,o),
(97,168,o),
(97,0,c)
);
},
{
closed = 1;
nodes = (
(502,462,l),
(502,502,l),
(20,498,l),
(20,462,l)
);
}
);
width = 453;
}
);
unicode = 102;
},
{
color = 0;
glyphname = g;
lastChange = "2023-11-03 18:06:18 +0000";
layers = (
{
anchors = (
{
name = bottom;
pos = (290,-200);
},
{
name = top;
pos = (290,500);
}
);
background = {
shapes = (
{
closed = 1;
nodes = (
(431,-8,o),
(524,90,o),
(524,258,cs),
(524,446,o),
(431,528,o),
(275,528,cs),
(119,528,o),
(25,446,o),
(25,258,cs),
(25,90,o),
(119,-8,o),
(275,-8,cs)
);
},
{
closed = 1;
nodes = (
(392,-208,o),
(553,-210,o),
(549,0,c),
(469,0,l),
(465,-43,o),
(470,-129,o),
(299,-128,cs),
(147,-127,o),
(136,-81,o),
(136,-27,c),
(56,-24,l),
(50,-204,o),
(204,-210,o),
(275,-209,cs)
);
},
{
closed = 1;
nodes = (
(152,106,o),
(108,123,o),
(108,175,cs),
(108,227,o),
(152,244,o),
(266,244,cs),
(380,244,o),
(441,227,o),
(441,175,cs),
(441,123,o),
(380,106,o),
(266,106,cs)
);
},
{
closed = 1;
nodes = (
(549,0,l),
(545,233,o),
(545,269,o),
(549,502,c),
(469,502,l),
(473,269,o),
(473,233,o),
(469,0,c)
);
}
);
};
layerId = m01;
shapes = (
{
closed = 1;
nodes = (
(392,-204,o),
(549,-171,o),
(549,0,cs),
(549,233,o),
(545,269,o),
(549,502,c),
(469,502,l),
(469,484,o),
(470,466,o),
(470,450,c),
(427,503,o),
(361,528,o),
(275,528,cs),
(119,528,o),
(25,446,o),
(25,258,cs),
(25,90,o),
(119,-8,o),
(275,-8,cs),
(361,-8,o),
(428,22,o),
(470,76,c),
(465,20,o),
(431,-52,o),
(275,-52,cs),
(221,-52,o),
(162,-39,o),
(83,0,c),
(83,-197,l),
(145,-205,o),
(204,-212,o),
(275,-209,cs)
);
},
{
closed = 1;
nodes = (
(152,106,o),
(108,123,o),
(108,175,cs),
(108,227,o),
(152,244,o),
(266,244,cs),
(380,244,o),
(441,227,o),
(441,175,cs),
(441,123,o),
(380,106,o),
(266,106,cs)
);
}
);
width = 599;
},
{
anchors = (
{
name = bottom;
pos = (284,-200);
},
{
name = top;
pos = (284,480);
}
);
background = {
shapes = (
{
closed = 1;
nodes = (
(459,-8,o),
(487,157,o),
(487,258,cs),
(487,359,o),
(457,509,o),
(284,509,cs),
(110,509,o),
(81,359,o),
(81,258,cs),
(81,150,o),
(110,-8,o),
(284,-8,cs)
);
},
{
closed = 1;
nodes = (
(493,-136,o),
(494,-72,o),
(492,-1,c),
(475,-1,l),
(473,-62,o),
(478,-118,o),
(305,-118,cs),
(157,-118,o),
(120,-95,o),
(117,-25,c),
(100,-25,l),
(104,-136,o),
(191,-136,o),
(305,-136,cs)
);
},
{
closed = 1;
nodes = (
(129,11,o),
(91,150,o),
(91,258,cs),
(91,366,o),
(129,487,o),
(284,487,cs),
(439,487,o),
(477,366,o),
(477,258,cs),
(477,150,o),
(439,11,o),
(284,11,cs)
);
},
{
closed = 1;
nodes = (
(492,-1,l),
(489,232,o),
(489,267,o),
(492,500,c),
(475,500,l),
(478,267,o),
(478,232,o),
(475,-1,c)
);
}
);
};
layerId = "60D037D9-62E9-4843-B070-F1594CB0B0D1";
shapes = (
{
closed = 1;
nodes = (
(459,-8,o),
(487,157,o),
(487,258,cs),
(487,359,o),
(457,509,o),
(284,509,cs),
(110,509,o),
(81,359,o),
(81,258,cs),
(81,150,o),
(110,-8,o),
(284,-8,cs)
);
},
{
closed = 1;
nodes = (
(493,-136,o),
(494,-72,o),
(492,-1,c),
(475,-1,l),
(473,-62,o),
(478,-118,o),
(305,-118,cs),
(157,-118,o),
(120,-95,o),
(117,-25,c),
(100,-25,l),
(104,-136,o),
(191,-136,o),
(305,-136,cs)
);
},
{
closed = 1;
nodes = (
(129,11,o),
(91,150,o),
(91,258,cs),
(91,366,o),
(129,487,o),
(284,487,cs),
(439,487,o),
(477,366,o),
(477,258,cs),
(477,150,o),
(439,11,o),
(284,11,cs)
);
},
{
closed = 1;
nodes = (
(492,-1,l),
(489,232,o),
(489,267,o),
(492,500,c),
(475,500,l),
(478,267,o),
(478,232,o),
(475,-1,c)
);
}
);
width = 568;
}
);
unicode = 103;
},
{
color = 6;
glyphname = h;
lastChange = "2023-11-03 19:29:08 +0000";
layers = (
{
anchors = (
{
name = bottom;
pos = (286,0);
},
{
name = center;
pos = (286,800);
},
{
name = top;
pos = (286,800);
}
);
background = {
shapes = (
{
closed = 1;
nodes = (
(116,227,o),
(178,244,o),
(291,244,cs),
(405,244,o),
(449,227,o),
(449,176,c),
(531,176,l),
(533,283,o),
(536,369,o),
(500,424,cs),
(441,513,o),
(364,528,o),
(288,528,c),
(233,527,o),
(106,495,o),
(84,369,c),
(84,369,o),
(116,175,o),
(116,175,c)
);
},
{
closed = 1;
nodes = (
(531,0,l),
(531,176,l),
(449,176,l),
(445,0,l)
);
},
{
closed = 1;
nodes = (
(42,467,o),
(42,233,o),
(38,0,c),
(118,0,l),
(114,233,o),
(114,467,o),
(118,700,c),
(38,700,l)
);
}
);
};
layerId = m01;
shapes = (
{
closed = 1;
nodes = (
(118,0,l),
(115,176,o),
(117,0,o),
(116,176,cs),
(116,228,o),
(178,244,o),
(291,244,cs),
(405,244,o),
(450,227,o),
(449,176,cs),
(445,0,l),
(531,0,l),
(531,176,ls),
(531,283,o),
(536,369,o),
(500,424,cs),
(441,513,o),
(364,528,o),
(288,528,cs),
(246,527,o),
(162,508,o),
(115,444,c),
(118,700,l),
(38,700,l),
(42,467,o),
(42,233,o),
(38,0,c)
);
}
);
width = 572;
},
{
anchors = (
{
name = bottom;
pos = (253,0);
},
{
name = center;
pos = (253,800);
},
{
name = top;
pos = (253,800);
}
);
background = {
shapes = (
{
closed = 1;
nodes = (
(85,0,l),
(83,85,o),
(83,119,o),
(83,254,cs),
(83,390,o),
(171,459,o),
(281,459,cs),
(403,459,o),
(476,389,o),
(474,275,cs),
(472,180,o),
(471,96,o),
(469,0,c),
(491,0,l),
(490,102,o),
(489,194,o),
(489,296,cs),
(489,409,o),
(420,496,o),
(297,496,cs),
(160,496,o),
(92,406,o),
(83,313,c),
(83,358,o),
(84,411,o),
(85,480,c),
(63,480,l),
(66,246,o),
(66,221,o),
(63,0,c)
);
}
);
};
layerId = "60D037D9-62E9-4843-B070-F1594CB0B0D1";
shapes = (
{
closed = 1;
nodes = (
(54,0,l),
(53,83,o),
(53,165,o),
(53,245,cs),
(53,358,o),
(114,459,o),
(250,459,cs),
(337,459,o),
(441,408,o),
(440,297,cs),
(436,0,l),
(459,0,l),
(458,297,ls),
(458,372,o),
(432,406,o),
(419,423,cs),
(399,449,o),
(363,492,o),
(266,496,cs),
(138,501,o),
(64,408,o),
(52,319,c),
(54,700,l),
(31,700,l),
(34,473,o),
(34,227,o),
(31,0,c)
);
}
);
width = 505;
}
);
unicode = 104;
},
{
color = 6;
glyphname = i;
lastChange = "2023-11-03 19:29:08 +0000";
layers = (
{
anchors = (
{
name = bottom;
pos = (221,0);
}
);
layerId = m01;
shapes = (
{
closed = 1;
nodes = (
(395,0,l),
(395,38,o),
(395,57,o),
(395,95,c),
(296,95,l),
(295,253,o),
(297,308,o),
(299,500,c),
(48,500,l),
(49,418,o),
(50,332,o),
(49,250,c),
(218,250,l),
(220,203,o),
(221,142,o),
(219,95,c),
(44,95,l),
(44,57,o),
(44,38,o),
(44,0,c)
);
},
{
closed = 1;
nodes = (
(309,636,o),
(338,653,o),
(338,700,cs),
(338,749,o),
(309,766,o),
(226,766,cs),
(143,766,o),
(114,749,o),
(114,700,cs),
(114,653,o),
(143,636,o),
(226,636,cs)
);
}
);
width = 410;
},
{
anchors = (
{
name = bottom;
pos = (223,0);
}
);
guides = (
{
pos = (738,11);
}
);
layerId = "60D037D9-62E9-4843-B070-F1594CB0B0D1";
shapes = (
{
closed = 1;
nodes = (
(412,0,l),
(412,5,o),
(412,10,o),
(412,17,c),
(236,17,l),
(236,199,o),
(237,258,o),
(237,480,c),
(49,480,l),
(49,466,o),
(49,447,o),
(49,439,c),
(214,439,l),
(217,337,o),
(217,239,o),
(215,17,c),
(39,17,l),
(39,11,o),
(39,5,o),
(39,0,c)
);
},
{
closed = 1;
nodes = (
(311,643,o),
(343,659,o),
(343,689,cs),
(343,713,o),
(311,726,o),
(250,726,cs),
(189,726,o),
(156,713,o),
(156,689,cs),
(156,659,o),
(189,643,o),
(250,643,cs)
);
}
);
width = 445;
}
);
unicode = 105;
},
{
color = 1;
glyphname = j;
lastChange = "2023-11-03 18:06:18 +0000";
layers = (
{
background = {
shapes = (
{
closed = 1;
nodes = (
(206,-14,o),
(273,16,o),
(315,70,c),
(310,14,o),
(276,-58,o),
(120,-58,cs),
(66,-58,o),
(7,-45,o),
(-72,-6,c),
(-72,-203,l),
(-10,-211,o),
(49,-218,o),
(120,-215,cs),
(237,-210,o),
(394,-177,o),
(394,-6,cs),
(394,227,o),
(390,263,o),
(394,496,c),
(314,496,l),
(314,478,o),
(315,460,o),
(315,444,c),
(272,497,o),
(206,522,o),
(120,522,cs),
(-36,522,o),
(-130,440,o),
(-130,252,cs),
(-130,84,o),
(-36,-14,o),
(120,-14,cs)
);
},
{
closed = 1;
nodes = (
(-47,221,o),
(-3,238,o),
(111,238,cs),
(225,238,o),
(286,221,o),
(286,169,cs),
(286,117,o),
(225,100,o),
(111,100,cs),
(-3,100,o),
(-47,117,o),
(-47,169,cs)
);
}
);
};
layerId = m01;
shapes = (
{
closed = 1;
nodes = (
(221,-245,o),
(395,-234,o),
(395,0,cs),
(395,500,l),
(315,500,l),
(315,376,o),
(321,126,o),
(315,70,cs),
(303,-36,o),
(163,-64,o),
(85,-6,c),
(85,-203,l)
);
},
{
closed = 1;
nodes = (
(366,250,l),
(367,500,l),
(35,500,l),
(35,250,l)
);
},
{
closed = 1;
nodes = (
(366,636,o),
(395,653,o),
(395,700,cs),
(395,749,o),
(366,766,o),
(283,766,cs),
(200,766,o),
(171,749,o),
(171,700,cs),
(171,653,o),
(200,636,o),
(283,636,cs)
);
}
);
width = 430;
},
{
layerId = "60D037D9-62E9-4843-B070-F1594CB0B0D1";
shapes = (
{
closed = 1;
nodes = (
(232,-150,ls),
(327,-150,o),
(368,-94,o),
(373,-31,cs),
(376,7,o),
(377,20,o),
(377,49,cs),
(378,480,l),
(357,480,l),
(354,-41,o),
(394,-87,o),
(276,-130,cs),
(251,-139,o),
(151,-138,o),
(120,-131,cs),
(49,-115,o),
(43,-68,o),
(37,-23,c),
(20,-23,l),
(20,-23,o),
(20,-34,o),
(23,-49,cs),
(40,-132,o),
(105,-150,o),
(166,-150,cs)
);
},
{
closed = 1;
nodes = (
(374,445,l),
(374,480,l),
(86,480,l),
(86,445,l)
);
},
{
closed = 1;
nodes = (
(381,643,o),
(413,659,o),
(413,689,cs),
(413,713,o),
(381,726,o),
(320,726,cs),
(259,726,o),
(226,713,o),
(226,689,cs),
(226,659,o),
(259,643,o),
(320,643,cs)
);
}
);
width = 428;
}
);
unicode = 106;
},
{
color = 1;
glyphname = k;
lastChange = "2023-11-01 18:16:22 +0000";
layers = (
{
anchors = (
{
name = bottom;
pos = (300,0);
},
{
name = top;
pos = (300,800);
}
);
layerId = m01;
width = 600;
},
{
anchors = (
{
name = bottom;
pos = (254,0);
},
{
name = top;
pos = (254,800);
}
);
layerId = "60D037D9-62E9-4843-B070-F1594CB0B0D1";
shapes = (
{
closed = 1;
nodes = (
(334,290,ls),
(388,290,o),
(397,286,o),
(404,311,cs),
(417,356,o),
(437,429,o),
(455,501,c),
(436,501,l),
(415,418,o),
(402,355,o),
(391,328,cs),
(387,318,o),
(378,309,o),
(333,306,cs),
(282,304,o),
(206,307,o),
(85,307,c),
(86,290,l)
);
},
{
closed = 1;
nodes = (
(89,0,l),
(87,252,l),
(87,328,l),
(93,801,l),
(68,801,l),
(75,534,o),
(75,267,o),
(72,0,c)
);
},
{
closed = 1;
nodes = (
(482,0,l),
(459,114,o),
(436,231,o),
(395,304,c),
(383,290,l),
(415,231,o),
(431,131,o),
(458,0,c)
);
}
);
width = 507;
}
);
unicode = 107;
},
{
color = 0;
glyphname = l;
lastChange = "2023-11-03 18:56:15 +0000";
layers = (
{
anchors = (
{
name = bottom;
pos = (237,0);
},
{
name = center;
pos = (237,800);
},
{
name = top;
pos = (237,800);
},
{
name = topright;
pos = (433,800);
}
);
layerId = m01;
shapes = (
{
closed = 1;
nodes = (
(441,0,l),
(436,38,o),
(431,57,o),
(434,95,c),
(312,95,l),
(312,371,o),
(316,464,o),
(336,800,c),
(62,800,l),
(64,718,o),
(64,617,o),
(64,535,c),
(234,535,l),
(241,386,o),
(238,244,o),
(235,95,c),
(59,95,l),
(60,57,o),
(53,38,o),
(44,0,c)
);
}
);
width = 456;
},
{
anchors = (
{
name = bottom;
pos = (233,0);
},
{
name = center;
pos = (233,800);
},
{
name = top;
pos = (233,800);
},
{
name = topright;
pos = (435,800);
}
);
layerId = "60D037D9-62E9-4843-B070-F1594CB0B0D1";
shapes = (
{
closed = 1;
nodes = (
(431,0,l),
(427,5,o),
(425,10,o),
(424,17,c),
(250,17,l),
(250,326,o),
(254,437,o),
(274,803,c),
(59,803,l),
(59,789,o),
(57,778,o),
(54,770,c),
(224,770,l),
(227,591,o),
(227,405,o),
(225,17,c),
(49,17,l),
(49,15,o),
(42,3,o),
(39,0,c)
);
}
);
width = 464;
}
);
metricLeft = i;
metricRight = i;
unicode = 108;
},
{
color = 6;
glyphname = m;
lastChange = "2023-11-03 19:29:08 +0000";
layers = (
{
anchors = (
{
name = bottom;
pos = (472,0);
},
{
name = top;
pos = (472,500);
}
);
background = {
shapes = (
{
closed = 1;
nodes = (
(424,0,l),
(479,0,l),
(478,255,l),
(429,196,l)
);
},
{
closed = 1;
nodes = (
(20,0,l),
(100,0,l),
(95,193,l),
(96,500,l),
(20,500,l)
);
},
{
closed = 1;
nodes = (
(95,167,l),
(95,193,ls),
(95,220,o),
(110,228,o),
(129,230,cs),
(180,235,o),
(351,235,o),
(395,230,cs),
(414,228,o),
(429,220,o),
(429,193,c),
(471,116,l),
(481,208,o),
(481,301,o),
(471,393,cs),
(464,458,o),
(430,508,o),
(333,508,cs),
(332,508,l),
(230,508,ls),
(133,508,o),
(99,458,o),
(92,393,cs),
(82,301,o),
(82,208,o),
(92,116,c)
);
},
{
closed = 1;
nodes = (
(455,255,l),
(454,0,l),
(509,0,l),
(504,196,l)
);
},
{
closed = 1;
nodes = (
(837,500,l),
(838,193,l),
(833,0,l),
(913,0,l),
(913,500,l)
);
},
{
closed = 1;
nodes = (
(851,208,o),
(851,301,o),
(841,393,cs),
(834,458,o),
(800,508,o),
(703,508,cs),
(601,508,l),
(600,508,ls),
(503,508,o),
(469,458,o),
(462,393,cs),
(452,301,o),
(452,208,o),
(462,116,c),
(504,193,l),
(504,220,o),
(519,228,o),
(538,230,cs),
(582,235,o),
(753,235,o),
(804,230,cs),
(823,228,o),
(838,220,o),
(838,193,cs),
(838,167,l),
(841,116,l)
);
}
);
};
layerId = m01;
shapes = (
{
closed = 1;
nodes = (
(100,0,l),
(95,193,ls),
(95,250,o),
(212,234,o),
(263,234,cs),
(313,234,o),
(427,249,o),
(429,195,c),
(424,0,l),
(509,0,l),
(504,195,l),
(506,250,o),
(623,234,o),
(672,234,cs),
(724,234,o),
(838,249,o),
(838,193,cs),
(833,0,l),
(913,0,l),
(913,500,l),
(837,500,l),
(837,416,l),
(825,469,o),
(788,508,o),
(652,508,cs),
(516,508,o),
(480,471,o),
(467,419,c),
(453,471,o),
(417,508,o),
(282,508,cs),
(145,508,o),
(108,469,o),
(96,416,c),
(96,500,l),
(20,500,l),
(20,0,l)
);
}
);
width = 943;
},
{
anchors = (
{
name = bottom;
pos = (452,0);
},
{
name = top;
pos = (452,480);
}
);
layerId = "60D037D9-62E9-4843-B070-F1594CB0B0D1";
shapes = (
{
closed = 1;
nodes = (
(71,0,l),
(67,230,ls),
(70,415,o),
(56,466,o),
(248,466,cs),
(453,471,o),
(434,388,o),
(434,196,cs),
(429,0,l),
(454,0,l),
(449,196,ls),
(449,390,o),
(433,471,o),
(632,466,cs),
(823,466,o),
(813,421,o),
(816,230,cs),
(812,0,l),
(833,0,l),
(833,500,l),
(815,500,l),
(815,436,l),
(799,479,o),
(772,508,o),
(634,508,cs),
(511,508,o),
(472,500,o),
(445,392,c),
(428,497,o),
(364,508,o),
(250,508,cs),
(111,508,o),
(84,479,o),
(68,436,c),
(68,500,l),
(50,500,l),
(50,0,l)
);
}
);
width = 903;
}
);
unicode = 109;
},
{
color = 6;
glyphname = n;
lastChange = "2023-11-03 19:29:08 +0000";
layers = (
{
anchors = (
{
name = bottom;
pos = (290,0);
},
{
name = top;
pos = (290,500);
}
);
background = {
shapes = (
{
closed = 1;
nodes = (
(118,227,o),
(180,244,o),
(293,244,cs),
(407,244,o),
(451,227,o),
(451,176,c),
(533,176,l),
(535,283,o),
(538,369,o),
(502,424,cs),
(443,513,o),
(366,528,o),
(290,528,c),
(235,527,o),
(108,495,o),
(86,369,c),
(86,369,o),
(118,175,o),
(118,175,c)
);
},
{
closed = 1;
nodes = (
(533,0,l),
(533,176,l),
(451,176,l),
(447,0,l)
);
},
{
closed = 1;
nodes = (
(44,267,o),
(44,233,o),
(40,0,c),
(120,0,l),
(116,233,o),
(116,267,o),
(120,500,c),
(40,500,l)
);
}
);
};
layerId = m01;
shapes = (
{
closed = 1;
nodes = (
(121,0,l),
(119,58,o),
(117,117,o),
(117,175,c),
(117,220,o),
(170,244,o),
(299,244,cs),
(410,244,o),
(451,226,o),
(451,176,cs),
(451,107,o),
(447,69,o),
(445,0,c),
(535,0,l),
(533,89,o),
(533,178,o),
(533,267,cs),
(533,433,o),
(450,520,o),
(300,515,cs),
(203,512,o),
(145,474,o),
(119,446,c),
(119,463,o),
(120,481,o),
(120,500,c),
(40,500,l),
(44,267,o),
(44,233,o),
(40,0,c)
);
}
);
width = 579;
},
{
anchors = (
{
name = bottom;
pos = (293,0);
},
{
name = top;
pos = (293,480);
}
);
background = {
shapes = (
{
pos = (1,0);
ref = o;
}
);
};
layerId = "60D037D9-62E9-4843-B070-F1594CB0B0D1";
shapes = (
{
closed = 1;
nodes = (
(106,0,l),
(104,85,o),
(104,119,o),
(104,254,cs),
(104,390,o),
(192,459,o),
(302,459,cs),
(424,459,o),
(497,389,o),
(495,275,cs),
(493,180,o),
(492,96,o),
(490,0,c),
(512,0,l),
(511,102,o),
(510,194,o),
(510,296,cs),
(510,409,o),
(441,496,o),
(318,496,cs),
(181,496,o),
(113,406,o),
(104,313,c),
(104,358,o),
(105,411,o),
(106,480,c),
(84,480,l),
(87,246,o),
(87,221,o),
(84,0,c)
);
}
);
width = 585;
}
);
unicode = 110;
},
{
color = 6;
glyphname = o;
lastChange = "2023-11-03 19:29:08 +0000";
layers = (
{
anchors = (
{
name = bottom;
pos = (284,0);
},
{
name = center;
pos = (284,250);
},
{
name = ogonek;
pos = (511,10);
},
{
name = top;
pos = (284,500);
},
{
name = topright;
pos = (548,500);
}
);
layerId = m01;
shapes = (
{
closed = 1;
nodes = (
(456,-16,o),
(548,75,o),
(548,246,cs),
(548,422,o),
(456,516,o),
(284,516,cs),
(112,516,o),
(20,422,o),
(20,246,cs),
(20,75,o),
(112,-16,o),
(284,-16,cs)
);
},
{
closed = 1;
nodes = (
(151,98,o),
(103,116,o),
(103,165,cs),
(103,216,o),
(151,234,o),
(284,234,cs),
(417,234,o),
(465,216,o),
(465,165,cs),
(465,116,o),
(417,98,o),
(284,98,cs)
);
}
);
width = 568;
},
{
anchors = (
{
name = bottom;
pos = (295,0);
},
{
name = center;
pos = (295,240);
},
{
name = ogonek;
pos = (531,10);
},
{
name = top;
pos = (295,480);
},
{
name = topright;
pos = (570,480);
}
);
layerId = "60D037D9-62E9-4843-B070-F1594CB0B0D1";
shapes = (
{
closed = 1;
nodes = (
(444,-16,o),
(522,76,o),
(522,247,cs),
(522,410,o),
(444,496,o),
(295,496,cs),
(146,496,o),
(68,410,o),
(68,247,cs),
(68,76,o),
(146,-16,o),
(295,-16,cs)
);
},
{
closed = 1;
nodes = (
(160,3,o),
(89,88,o),
(89,247,cs),
(89,382,o),
(160,453,o),
(295,453,cs),
(430,453,o),
(501,382,o),
(501,247,cs),
(501,88,o),
(430,3,o),
(295,3,cs)
);
}
);
width = 590;
}
);
unicode = 111;
},
{
color = 1;
glyphname = p;
lastChange = "2023-11-03 18:06:18 +0000";
layers = (
{
anchors = (
{
name = bottom;
pos = (291,0);
},
{
name = top;
pos = (291,500);
}
);
layerId = m01;
shapes = (
{
closed = 1;
nodes = (
(468,-8,o),
(562,90,o),
(562,258,cs),
(562,446,o),
(468,528,o),
(312,528,cs),
(156,528,o),
(63,446,o),
(63,258,cs),
(63,90,o),
(156,-8,o),
(312,-8,cs)
);
},
{
closed = 1;
nodes = (
(118,-200,l),
(114,33,o),
(114,267,o),
(118,500,c),
(38,500,l),
(42,267,o),
(42,33,o),
(38,-200,c)
);
},
{
closed = 1;
nodes = (
(207,106,o),
(146,123,o),
(146,175,cs),
(146,227,o),
(207,244,o),
(321,244,cs),
(435,244,o),
(479,227,o),
(479,175,cs),
(479,123,o),
(435,106,o),
(321,106,cs)
);
}
);
width = 582;
},
{
anchors = (
{
name = bottom;
pos = (257,0);
},
{
name = top;
pos = (257,480);
}
);
layerId = "60D037D9-62E9-4843-B070-F1594CB0B0D1";
shapes = (
{
closed = 1;
nodes = (
(444,-8,o),
(473,150,o),
(473,258,cs),
(473,359,o),
(444,509,o),
(270,509,cs),
(96,509,o),
(67,359,o),
(67,258,cs),
(67,157,o),
(95,-8,o),
(270,-8,cs)
);
},
{
closed = 1;
nodes = (
(79,-200,l),
(76,33,o),
(76,267,o),
(79,500,c),
(62,500,l),
(65,267,o),
(65,33,o),
(62,-200,c)
);
},
{
closed = 1;
nodes = (
(115,11,o),
(77,150,o),
(77,258,cs),
(77,366,o),
(115,487,o),
(270,487,cs),
(425,487,o),
(463,366,o),
(463,258,cs),
(463,150,o),
(425,11,o),
(270,11,cs)
);
}
);
width = 513;
}
);
unicode = 112;
},
{
color = 1;
glyphname = q;
lastChange = "2023-11-03 18:06:18 +0000";
layers = (
{
anchors = (
{
name = bottom;
pos = (290,0);
},
{
name = top;
pos = (290,500);
}
);
layerId = m01;
shapes = (
{
closed = 1;
nodes = (
(426,-8,o),
(519,90,o),
(519,258,cs),
(519,446,o),
(426,528,o),
(270,528,cs),
(114,528,o),
(20,446,o),
(20,258,cs),
(20,90,o),
(114,-8,o),
(270,-8,cs)
);
},
{
closed = 1;
nodes = (
(147,106,o),
(103,123,o),
(103,175,cs),
(103,227,o),
(147,244,o),
(261,244,cs),
(375,244,o),
(436,227,o),
(436,175,cs),
(436,123,o),
(375,106,o),
(261,106,cs)
);
},
{
closed = 1;
nodes = (
(544,-200,l),
(540,33,o),
(540,267,o),
(544,500,c),
(464,500,l),
(468,267,o),
(468,33,o),
(464,-200,c)
);
}
);
width = 579;
},
{
anchors = (
{
name = bottom;
pos = (256,0);
},
{
name = top;
pos = (256,480);
}
);
layerId = "60D037D9-62E9-4843-B070-F1594CB0B0D1";
shapes = (
{
closed = 1;
nodes = (
(418,-8,o),
(446,157,o),
(446,258,cs),
(446,359,o),
(417,509,o),
(243,509,cs),
(69,509,o),
(40,359,o),
(40,258,cs),
(40,150,o),
(69,-8,o),
(243,-8,cs)
);
},
{
closed = 1;
nodes = (
(88,11,o),
(50,150,o),
(50,258,cs),
(50,366,o),
(88,487,o),
(243,487,cs),
(398,487,o),
(436,366,o),
(436,258,cs),
(436,150,o),
(398,11,o),
(243,11,cs)
);
},
{
closed = 1;
nodes = (
(451,-200,l),
(448,33,o),
(448,267,o),
(451,500,c),
(434,500,l),
(437,267,o),
(437,33,o),
(434,-200,c)
);
}
);
width = 511;
}
);
unicode = 113;
},
{
color = 6;
glyphname = r;
lastChange = "2023-11-03 19:29:08 +0000";
layers = (
{
anchors = (
{
name = bottom;
pos = (268,0);
},
{
name = top;
pos = (268,500);
}
);
background = {
shapes = (
{
closed = 1;
nodes = (
(25,0,l),
(105,0,l),
(100,193,l),
(101,500,l),
(25,500,l)
);
},
{
closed = 1;
nodes = (
(100,193,cs),
(100,220,o),
(115,228,o),
(134,230,cs),
(185,235,o),
(366,235,o),
(410,230,cs),
(429,228,o),
(444,220,o),
(444,185,c),
(511,185,l),
(519,334,o),
(548,508,o),
(373,508,cs),
(138,508,o),
(104,458,o),
(97,393,cs),
(87,301,o),
(87,208,o)
);
}
);
};
layerId = m01;
shapes = (
{
closed = 1;
nodes = (
(115,0,l),
(112,175,ls),
(111,224,o),
(178,244,o),
(268,244,cs),
(412,244,o),
(447,218,o),
(447,186,c),
(511,186,l),
(511,410,o),
(512,528,o),
(296,528,cs),
(245,528,o),
(168,514,o),
(114,446,c),
(115,500,l),
(35,500,l),
(39,267,o),
(39,233,o),
(35,0,c)
);
}
);
width = 536;
},
{
anchors = (
{
name = bottom;
pos = (277,0);
},
{
name = top;
pos = (277,480);
}
);
layerId = "60D037D9-62E9-4843-B070-F1594CB0B0D1";
shapes = (
{
closed = 1;
nodes = (
(81,0,l),
(77,230,ls),
(80,429,o),
(85,466,o),
(280,466,cs),
(456,466,o),
(486,433,o),
(486,251,c),
(504,251,l),
(504,439,o),
(502,508,o),
(280,508,cs),
(179,508,o),
(105,498,o),
(78,436,c),
(78,500,l),
(60,500,l),
(60,333,o),
(60,167,o),
(60,0,c)
);
}
);
width = 554;
}
);
unicode = 114;
},
{
color = 6;
glyphname = s;
lastChange = "2023-11-03 19:29:08 +0000";
layers = (
{
anchors = (
{
name = bottom;
pos = (242,0);
},
{
name = top;
pos = (242,508);
}
);
layerId = m01;
shapes = (
{
closed = 1;
nodes = (
(331,-11,o),
(424,6,o),
(424,117,cs),
(424,249,o),
(168,208,o),
(168,243,cs),
(168,255,o),
(182,263,o),
(266,264,cs),
(322,265,o),
(374,258,o),
(429,249,c),
(429,500,l),
(364,509,o),
(300,515,o),
(235,515,cs),
(99,515,o),
(25,425,o),
(25,341,cs),
(25,149,o),
(252,201,o),
(316,176,cs),
(334,169,o),
(329,150,o),
(314,146,cs),
(279,137,o),
(141,130,o),
(45,157,c),
(42,0,l),
(92,-9,o),
(141,-11,o),
(191,-11,cs)
);
}
);
width = 459;
},
{
anchors = (
{
name = bottom;
pos = (266,0);
},
{
name = top;
pos = (266,480);
}
);
layerId = "60D037D9-62E9-4843-B070-F1594CB0B0D1";
shapes = (
{
closed = 1;
nodes = (
(389,-11,o),
(424,55,o),
(424,108,cs),
(424,266,o),
(103,183,o),
(103,341,cs),
(103,408,o),
(166,457,o),
(250,458,cs),
(306,459,o),
(374,449,o),
(429,440,c),
(429,481,l),
(364,490,o),
(322,496,o),
(257,496,cs),
(121,496,o),
(73,424,o),
(73,341,cs),
(73,199,o),
(316,218,o),
(383,160,cs),
(429,120,o),
(397,52,o),
(359,30,cs),
(318,6,o),
(254,0,o),
(100,19,c),
(100,0,l),
(150,-9,o),
(199,-11,o),
(249,-11,cs)
);
}
);
width = 531;
}
);
unicode = 115;
},
{
color = 6;
glyphname = t;
lastChange = "2023-11-03 19:29:08 +0000";
layers = (
{
anchors = (
{
name = bottom;
pos = (298,0);
},
{
name = center;
pos = (298,250);
},
{
name = top;
pos = (298,500);
},
{
name = topright;
pos = (576,800);
}
);
layerId = m01;
shapes = (
{
closed = 1;
nodes = (
(389,-10,o),
(447,5,o),
(482,27,c),
(482,227,l),
(447,208,o),
(378,188,o),
(310,188,cs),
(195,188,o),
(168,215,o),
(167,265,c),
(169,484,l),
(172,650,l),
(92,650,l),
(92,484,l),
(90,277,l),
(76,56,o),
(170,-10,o),
(310,-10,cs)
);
},
{
closed = 1;
nodes = (
(108,500,l),
(15,500,l),
(15,290,l),
(105,289,l)
);
},
{
closed = 1;
nodes = (
(512,290,l),
(512,500,l),
(153,500,l),
(152,290,l)
);
}
);
width = 596;
},
{
anchors = (
{
name = bottom;
pos = (244,0);
},
{
name = center;
pos = (244,240);
},
{
name = top;
pos = (244,480);
},
{
name = topright;
pos = (468,800);
}
);
layerId = "60D037D9-62E9-4843-B070-F1594CB0B0D1";
shapes = (
{
closed = 1;
nodes = (
(380,-9,o),
(427,-7,o),
(448,118,c),
(431,118,l),
(416,9,o),
(367,5,o),
(270,5,cs),
(171,5,o),
(108,44,o),
(109,188,cs),
(111,470,l),
(111,490,l),
(111,650,l),
(90,650,l),
(91,190,ls),
(92,48,o),
(119,-9,o),
(269,-9,cs)
);
},
{
closed = 1;
nodes = (
(100,461,l),
(100,499,l),
(20,499,l),
(20,461,l)
);
},
{
closed = 1;
nodes = (
(424,461,l),
(424,499,l),
(102,499,l),
(102,461,l)
);
}
);
width = 488;
}
);
unicode = 116;
},
{
color = 0;
glyphname = u;
lastChange = "2023-11-03 18:06:18 +0000";
layers = (
{
anchors = (
{
name = bottom;
pos = (280,0);
},
{
name = ogonek;
pos = (503,10);
},
{
name = top;
pos = (280,500);
},
{
name = topright;
pos = (539,500);
}
);
background = {
shapes = (
{
closed = 1;
nodes = (
(538,245,l),
(539,500,l),
(459,500,l),
(464,304,l)
);
},
{
closed = 1;
nodes = (
(96,260,l),
(95,315,l),
(100,500,l),
(20,500,l),
(21,260,l)
);
},
{
closed = 1;
nodes = (
(18,300,o),
(18,207,o),
(28,115,cs),
(35,50,o),
(70,0,o),
(167,0,cs),
(275,0,l),
(393,0,ls),
(490,0,o),
(524,50,o),
(531,115,cs),
(541,207,o),
(541,300,o),
(531,392,c),
(464,315,l),
(464,288,o),
(449,280,o),
(430,278,cs),
(386,273,o),
(180,273,o),
(129,278,cs),
(110,280,o),
(95,288,o),
(95,315,cs),
(95,341,l),
(28,392,l)
);
}
);
};
layerId = m01;
shapes = (
{
closed = 1;
nodes = (
(461,-9,o),
(513,41,o),
(515,214,cs),
(517,500,l),
(437,500,l),
(440,324,ls),
(441,273,o),
(386,256,o),
(273,256,cs),
(159,256,o),
(105,273,o),
(106,324,cs),
(110,500,l),
(30,500,l),
(31,220,ls),
(32,35,o),
(84,-9,o),
(273,-9,cs)
);
}
);
width = 559;
},
{
anchors = (
{
name = bottom;
pos = (285,0);
},
{
name = ogonek;
pos = (513,10);
},
{
name = top;
pos = (285,480);
},
{
name = topright;
pos = (550,480);
}
);
layerId = "60D037D9-62E9-4843-B070-F1594CB0B0D1";
shapes = (
{
closed = 1;
nodes = (
(533,0,o),
(522,88,o),
(519,283,cs),
(520,500,l),
(500,500,l),
(504,304,ls),
(504,67,o),
(523,10,o),
(286,14,cs),
(57,14,o),
(72,41,o),
(68,278,cs),
(72,500,l),
(51,500,l),
(51,289,ls),
(45,109,o),
(30,0,o),
(286,0,cs)
);
}
);
width = 570;
}
);
unicode = 117;
},
{
color = 6;
glyphname = v;
lastChange = "2023-11-03 19:29:08 +0000";
layers = (
{
anchors = (
{
name = bottom;
pos = (272,0);
},
{
name = top;
pos = (272,500);
}
);
background = {
shapes = (
{
closed = 1;
nodes = (
(343,0,ls),
(404,0,o),
(422,-8,o),
(450,108,cs),
(475,210,o),
(459,143,o),
(482,245,cs),
(539,500,l),
(459,500,l),
(414,305,ls),
(410,286,o),
(396,280,o),
(380,278,cs),
(356,275,o),
(313,274,o),
(271,274,cs),
(236,275,o),
(202,276,o),
(179,278,cs),
(160,280,o),
(152,289,o),
(145,315,cs),
(100,500,l),
(20,500,l),
(77,260,ls),
(100,150,o),
(87,210,o),
(110,109,cs),
(137,-8,o),
(152,0,o),
(217,0,cs)
);
}
);
};
layerId = m01;
shapes = (
{
closed = 1;
nodes = (
(344,0,ls),
(418,0,o),
(428,8,o),
(451,109,cs),
(541,500,l),
(461,500,l),
(416,315,ls),
(406,275,o),
(401,274,o),
(281,274,cs),
(161,274,o),
(155,275,o),
(145,315,cs),
(100,500,l),
(20,500,l),
(110,109,ls),
(133,8,o),
(143,0,o),
(217,0,cs)
);
}
);
width = 544;
},
{
anchors = (
{
name = bottom;
pos = (270,0);
},
{
name = top;
pos = (270,480);
}
);
background = {
shapes = (
{
closed = 1;
nodes = (
(308,0,ls),
(362,0,o),
(371,-4,o),
(378,21,cs),
(499,480,l),
(478,480,l),
(365,38,ls),
(358,10,o),
(352,17,o),
(267,17,cs),
(187,17,o),
(179,10,o),
(172,38,cs),
(61,480,l),
(40,480,l),
(158,23,ls),
(165,-3,o),
(181,0,o),
(231,0,cs)
);
}
);
};
layerId = "60D037D9-62E9-4843-B070-F1594CB0B0D1";
shapes = (
{
closed = 1;
nodes = (
(308,0,ls),
(368,0,o),
(375,1,o),
(381,23,cs),
(499,480,l),
(478,480,l),
(365,31,ls),
(362,18,o),
(361,17,o),
(270,17,cs),
(178,17,o),
(177,18,o),
(174,31,cs),
(61,480,l),
(40,480,l),
(158,23,ls),
(164,1,o),
(171,0,o),
(231,0,cs)
);
}
);
width = 539;
}
);
unicode = 118;
},
{
color = 0;
glyphname = w;
lastChange = "2023-11-03 18:06:18 +0000";
layers = (
{
anchors = (
{
name = bottom;
pos = (475,0);
},
{
name = top;
pos = (475,500);
}
);
layerId = m01;
shapes = (
{
closed = 1;
nodes = (
(649,0,l),
(759,0,ls),
(813,0,o),
(831,-8,o),
(858,109,cs),
(881,210,o),
(869,150,o),
(892,260,c),
(838,343,l),
(830,315,ls),
(823,289,o),
(815,280,o),
(796,278,cs),
(773,276,o),
(766,275,o),
(647,276,c),
(598,276,o),
(605,275,o),
(576,278,cs),
(556,280,o),
(547,288,o),
(540,315,c),
(484,245,l),
(506,143,o),
(490,210,o),
(512,108,cs),
(537,-8,o),
(552,0,o),
(608,0,cs)
);
},
{
closed = 1;
nodes = (
(290,0,l),
(331,0,ls),
(387,0,o),
(402,-8,o),
(427,108,cs),
(449,210,o),
(433,143,o),
(455,245,c),
(399,315,l),
(392,288,o),
(383,280,o),
(363,278,cs),
(334,275,o),
(341,276,o),
(298,276,c),
(204,275,o),
(191,276,o),
(168,278,cs),
(149,280,o),
(141,289,o),
(134,315,cs),
(126,343,l),
(72,260,l),
(95,150,o),
(83,210,o),
(106,109,cs),
(133,-8,o),
(151,0,o),
(205,0,cs)
);
},
{
closed = 1;
nodes = (
(135,260,l),
(134,315,l),
(95,500,l),
(15,500,l),
(72,260,l)
);
},
{
closed = 1;
nodes = (
(509,500,l),
(429,500,l),
(396,304,l),
(455,245,l)
);
},
{
closed = 1;
nodes = (
(543,304,l),
(510,500,l),
(430,500,l),
(484,245,l)
);
},
{
closed = 1;
nodes = (
(892,260,l),
(949,500,l),
(869,500,l),
(830,315,l),
(829,260,l)
);
}
);
width = 949;
},
{
anchors = (
{
name = bottom;
pos = (406,0);
},
{
name = top;
pos = (406,480);
}
);
layerId = "60D037D9-62E9-4843-B070-F1594CB0B0D1";
shapes = (
{
closed = 1;
nodes = (
(605,0,l),
(622,0,ls),
(665,0,o),
(683,4,o),
(691,30,cs),
(716,117,o),
(765,300,o),
(780,392,c),
(764,361,l),
(746,312,l),
(712,179,o),
(687,83,o),
(675,38,cs),
(668,12,o),
(637,17,o),
(590,17,cs),
(540,17,o),
(513,15,o),
(507,38,cs),
(497,78,o),
(474,179,o),
(449,312,c),
(416,392,l),
(436,299,o),
(469,119,o),
(491,30,cs),
(498,2,o),
(526,0,o),
(559,0,cs)
);
},
{
closed = 1;
nodes = (
(202,0,l),
(248,0,ls),
(281,0,o),
(309,4,o),
(316,30,cs),
(340,119,o),
(371,299,o),
(391,392,c),
(358,312,l),
(333,179,o),
(311,83,o),
(300,38,cs),
(294,13,o),
(262,16,o),
(209,16,cs),
(161,16,o),
(138,16,o),
(132,38,cs),
(119,83,o),
(95,179,o),
(61,312,c),
(43,361,l),
(27,392,l),
(42,300,o),
(89,117,o),
(116,30,cs),
(124,4,o),
(142,0,o),
(185,0,cs)
);
},
{
closed = 1;
nodes = (
(61,313,l),
(16,500,l),
(-5,500,l),
(52,274,l),
(68,259,l)
);
},
{
closed = 1;
nodes = (
(414,500,l),
(393,500,l),
(358,312,l),
(366,274,l)
);
},
{
closed = 1;
nodes = (
(449,312,l),
(414,500,l),
(393,500,l),
(441,274,l)
);
},
{
closed = 1;
nodes = (
(755,274,l),
(812,500,l),
(791,500,l),
(746,313,l),
(739,259,l)
);
}
);
width = 812;
}
);
unicode = 119;
},
{
color = 1;
glyphname = x;
lastChange = "2023-11-03 18:06:18 +0000";
layers = (
{
background = {
shapes = (
{
closed = 1;
nodes = (
(425,130,ls),
(499,130,o),
(509,138,o),
(532,239,cs),
(592,500,l),
(510,500,l),
(497,445,ls),
(487,405,o),
(481,404,o),
(361,404,cs),
(263,404,ls),
(143,404,o),
(137,405,o),
(127,445,cs),
(114,500,l),
(32,500,l),
(92,239,ls),
(115,138,o),
(125,130,o),
(199,130,cs)
);
},
{
closed = 1;
nodes = (
(391,87,ls),
(452,87,o),
(457,85,o),
(473,59,cs),
(510,0,l),
(592,0,l),
(532,99,ls),
(509,137,o),
(499,140,o),
(425,140,cs),
(199,140,ls),
(125,140,o),
(115,137,o),
(92,99,cs),
(32,0,l),
(114,0,l),
(151,59,ls),
(167,85,o),
(172,87,o),
(233,87,cs)
);
}
);
};
layerId = m01;
shapes = (
{
closed = 1;
nodes = (
(124,0,l),
(137,55,ls),
(152,112,o),
(159,116,o),
(312,116,cs),
(491,116,o),
(502,113,o),
(517,55,cs),
(530,0,l),
(612,0,l),
(532,231,ls),
(522,260,o),
(519,279,o),
(519,291,cs),
(519,303,o),
(531,326,o),
(552,371,cs),
(612,500,l),
(500,500,l),
(463,441,ls),
(431,391,o),
(429,383,o),
(312,383,cs),
(172,383,o),
(164,388,o),
(131,441,cs),
(94,500,l),
(12,500,l),
(72,371,ls),
(93,326,o),
(105,303,o),
(105,291,cs),
(105,279,o),
(102,260,o),
(92,231,cs),
(12,0,l)
);
}
);
width = 624;
},
{
anchors = (
{
name = bottom;
pos = (300,0);
},
{
name = top;
pos = (300,480);
}
);
layerId = "60D037D9-62E9-4843-B070-F1594CB0B0D1";
width = 600;
}
);
unicode = 120;
},
{
color = 0;
glyphname = y;
lastChange = "2023-11-03 18:06:18 +0000";
layers = (
{
anchors = (
{
name = bottom;
pos = (285,0);
},
{
name = top;
pos = (285,500);
}
);
layerId = m01;
shapes = (
{
closed = 1;
nodes = (
(307,0,l),
(334,0,ls),
(431,0,o),
(465,50,o),
(472,115,cs),
(482,207,o),
(482,300,o),
(472,392,c),
(469,341,l),
(469,315,ls),
(469,288,o),
(454,280,o),
(435,278,cs),
(384,273,o),
(178,273,o),
(134,278,cs),
(115,280,o),
(100,288,o),
(100,315,c),
(33,392,l),
(23,300,o),
(23,207,o),
(33,115,cs),
(40,50,o),
(74,0,o),
(171,0,cs)
);
},
{
closed = 1;
nodes = (
(326,-198,l),
(326,-124,l),
(271,-124,ls),
(184,-124,o),
(112,-132,o),
(112,-46,cs),
(112,-36,l),
(34,-36,l),
(35,-71,l),
(36,-136,o),
(85,-201,o),
(184,-200,cs)
);
},
{
closed = 1;
nodes = (
(350,-198,ls),
(497,-198,o),
(536,-116,o),
(541,-41,cs),
(544,8,l),
(464,8,l),
(463,-30,ls),
(461,-116,o),
(391,-124,o),
(298,-124,cs),
(243,-124,l),
(243,-198,l)
);
},
{
closed = 1;
nodes = (
(100,312,l),
(105,508,l),
(25,508,l),
(26,253,l)
);
},
{
closed = 1;
nodes = (
(464,8,l)
);
},
{
closed = 1;
nodes = (
(544,8,l),
(544,508,l),
(464,508,l),
(469,315,l),
(464,8,l)
);
}
);
width = 569;
},
{
anchors = (
{
name = bottom;
pos = (287,0);
},
{
name = top;
pos = (287,480);
}
);
layerId = "60D037D9-62E9-4843-B070-F1594CB0B0D1";
shapes = (
{
closed = 1;
nodes = (
(307,0,l),
(373,0,ls),
(470,0,o),
(504,50,o),
(511,115,cs),
(521,207,o),
(521,300,o),
(511,392,c),
(507,361,l),
(503,321,l),
(497,171,o),
(518,34,o),
(408,18,cs),
(373,13,o),
(189,11,o),
(158,18,cs),
(81,36,o),
(65,82,o),
(65,312,c),
(58,392,l),
(48,300,o),
(48,207,o),
(58,115,cs),
(65,50,o),
(99,0,o),
(196,0,cs)
);
},
{
closed = 1;
nodes = (
(332,-198,l),
(332,-183,l),
(220,-183,ls),
(145,-183,o),
(85,-150,o),
(85,-65,cs),
(85,-36,l),
(64,-36,l),
(65,-71,l),
(66,-136,o),
(115,-202,o),
(214,-200,cs)
);
},
{
closed = 1;
nodes = (
(333,-198,ls),
(480,-198,o),
(518,-112,o),
(518,-41,c),
(519,8,l),
(499,8,l),
(498,-36,ls),
(495,-168,o),
(397,-183,o),
(304,-183,cs),
(273,-183,l),
(273,-198,l)
);
},
{
closed = 1;
nodes = (
(65,312,l),
(70,508,l),
(50,508,l),
(51,253,l)
);
},
{
closed = 1;
nodes = (
(497,0,l)
);
},
{
closed = 1;
nodes = (
(519,8,l),
(519,508,l),
(498,508,l),
(502,315,l),
(499,8,l)
);
}
);
width = 574;
}
);
unicode = 121;
},
{
glyphname = e.s2;
lastChange = "2023-11-03 07:00:35 +0000";
layers = (
{
layerId = "60D037D9-62E9-4843-B070-F1594CB0B0D1";
width = 600;
},
{
layerId = m01;
shapes = (
{
closed = 1;
nodes = (
(487,118,o),
(488,156,o),
(488,156,cs),
(383,106,o),
(147,105,o),
(93,193,c),
(134,165,o),
(183,150,o),
(289,150,cs),
(441,150,o),
(528,193,o),
(528,319,cs),
(528,440,o),
(434,516,o),
(272,516,cs),
(115,516,o),
(20,420,o),
(20,262,cs),
(20,148,o),
(52,52,o),
(174,13,cs),
(225,-3,o),
(311,-2,o),
(319,-2,cs),
(357,-2,o),
(437,0,o),
(487,0,c)
);
},
{
closed = 1;
nodes = (
(124,224,o),
(89,231,o),
(89,262,cs),
(89,295,o),
(128,303,o),
(272,303,cs),
(417,303,o),
(458,294,o),
(458,262,cs),
(458,231,o),
(421,224,o),
(272,224,cs)
);
}
);
width = 600;
}
);
},
{
color = 0;
glyphname = e.ss01;
lastChange = "2023-11-01 16:21:06 +0000";
layers = (
{
layerId = "60D037D9-62E9-4843-B070-F1594CB0B0D1";
shapes = (
{
closed = 1;
nodes = (
(392,-8,o),
(429,3,o),
(460,22,c),
(460,45,l),
(425,27,o),
(386,11,o),
(309,11,cs),
(128,11,o),
(90,43,o),
(85,186,c),
(118,131,o),
(148,122,o),
(289,122,cs),
(446,122,o),
(493,167,o),
(493,319,cs),
(493,449,o),
(428,509,o),
(289,509,cs),
(133,509,o),
(63,443,o),
(63,295,cs),
(63,21,o),
(85,-8,o),
(309,-8,cs)
);
},
{
closed = 1;
nodes = (
(113,139,o),
(83,162,o),
(83,295,cs),
(83,415,o),
(145,466,o),
(289,466,cs),
(412,469,o),
(472,421,o),
(472,319,cs),
(472,178,o),
(432,139,o),
(289,139,cs)
);
}
);
width = 600;
},
{
layerId = m01;
shapes = (
{
closed = 1;
nodes = (
(390,-16,o),
(449,0,o),
(488,19,c),
(488,91,l),
(443,74,o),
(382,60,o),
(272,60,cs),
(119,60,o),
(87,78,o),
(92,162,c),
(116,134,o),
(164,125,o),
(289,125,cs),
(474,125,o),
(528,168,o),
(528,312,cs),
(528,462,o),
(461,516,o),
(272,516,cs),
(86,516,o),
(20,449,o),
(20,262,cs),
(20,35,o),
(66,-16,o),
(272,-16,cs)
);
},
{
closed = 1;
nodes = (
(124,190,o),
(89,201,o),
(89,245,cs),
(89,291,o),
(128,303,o),
(272,303,cs),
(417,303,o),
(458,290,o),
(458,245,cs),
(458,201,o),
(421,190,o),
(272,190,cs)
);
}
);
width = 600;
}
);
},
{
color = 0;
glyphname = period;
lastChange = "2023-11-03 18:31:59 +0000";
layers = (
{
layerId = m01;
shapes = (
{
closed = 1;
nodes = (
(256,-13,o),
(287,5,o),
(287,56,cs),
(287,109,o),
(256,128,o),
(166,128,cs),
(76,128,o),
(45,109,o),
(45,56,cs),
(45,5,o),
(76,-13,o),
(166,-13,cs)
);
}
);
width = 332;
},
{
layerId = "60D037D9-62E9-4843-B070-F1594CB0B0D1";
shapes = (
{
closed = 1;
nodes = (
(255,-17,o),
(289,0,o),
(289,32,cs),
(289,57,o),
(255,71,o),
(190,71,cs),
(125,71,o),
(90,57,o),
(90,32,cs),
(90,0,o),
(125,-17,o),
(190,-17,cs)
);
}
);
width = 379;
}
);
unicode = 46;
},
